<svg id="Calque_1" data-name="Calque 1" xmlns="http://www.w3.org/2000/svg" xmlns:xlink="http://www.w3.org/1999/xlink" viewBox="0 0 248.31 164.41"><defs><style>.cls-1{fill:none;}.cls-2{fill:url(#Dégradé_sans_nom_449);}.cls-3{clip-path:url(#clip-path);}.cls-4{fill:#ffbce5;}.cls-5{fill:#ffbce4;}.cls-6{fill:#ffbce3;}.cls-7{fill:#ffbce2;}.cls-8{fill:#ffbde1;}.cls-9{fill:#ffbde0;}.cls-10{fill:#ffbddf;}.cls-11{fill:#ffbdde;}.cls-12{fill:#ffbddd;}.cls-13{fill:#ffbddc;}.cls-14{fill:#ffbddb;}.cls-15{fill:#ffbeda;}.cls-16{fill:#ffbed9;}.cls-17{fill:#ffbed8;}.cls-18{fill:#ffbed7;}.cls-19{fill:#ffbed6;}.cls-20{fill:#ffbed5;}.cls-21{fill:#ffbfd4;}.cls-22{fill:#ffbfd3;}.cls-23{fill:#ffbfd2;}.cls-24{fill:#ffbfd1;}.cls-25{fill:#ffbfd0;}.cls-26{fill:#ffbfcf;}.cls-27{fill:#ffbfce;}.cls-28{fill:#ffbfcd;}.cls-29{fill:#ffc0cc;}.cls-30{fill:pink;}.cls-31{fill:#ffc0ca;}.cls-32{fill:#ffc0c9;}.cls-33{fill:#ffc0c8;}.cls-34{fill:#ffc0c7;}.cls-35{fill:#ffc0c6;}.cls-36{fill:#ffc1c5;}.cls-37{fill:#ffc1c4;}.cls-38{fill:#ffc1c3;}.cls-39{fill:#ffc1c2;}.cls-40{fill:#ffc1c1;}.cls-41{fill:#ffc1c0;}.cls-42{fill:#ffc2bf;}.cls-43{fill:#ffc2be;}.cls-44{fill:#ffc2bc;}.cls-45{fill:#ffc2bb;}.cls-46{fill:#ffc2ba;}.cls-47{fill:#ffc2b9;}.cls-48{fill:#ffc2b8;}.cls-49{fill:#ffc3b7;}.cls-50{fill:#ffc3b6;}.cls-51{fill:#ffc3b5;}.cls-52{fill:#ffc3b3;}.cls-53{fill:#ffc3b2;}.cls-54{fill:#ffc4b1;}.cls-55{fill:#ffc4b0;}.cls-56{fill:#ffc4af;}.cls-57{fill:#ffc4ad;}.cls-58{fill:#ffc4ac;}.cls-59{fill:#ffc4ab;}.cls-60{fill:#ffc5aa;}.cls-61{fill:#ffc5a9;}.cls-62{fill:#ffc5a7;}.cls-63{fill:#ffc5a6;}.cls-64{fill:#ffc5a5;}.cls-65{fill:#ffc5a4;}.cls-66{fill:#ffc6a2;}.cls-67{fill:#ffc6a1;}.cls-68{fill:#ffc6a0;}.cls-69{fill:#ffc69f;}.cls-70{fill:#ffc69d;}.cls-71{fill:#ffc79c;}.cls-72{fill:#ffc79b;}.cls-73{fill:#ffc79a;}.cls-74{fill:#ffc798;}.cls-75{fill:#ffc797;}.cls-76{fill:#ffc796;}.cls-77{fill:#ffc894;}.cls-78{fill:#ffc893;}.cls-79{fill:#ffc892;}.cls-80{fill:#ffc890;}.cls-81{fill:#ffc88f;}.cls-82{fill:#ffc98e;}.cls-83{fill:#ffc98c;}.cls-84{fill:#ffc98b;}.cls-85{fill:#feca8b;}.cls-86{fill:#fecb8b;}.cls-87{fill:#fdcb8b;}.cls-88{fill:#fdcc8b;}.cls-89{fill:#fccd8b;}.cls-90{fill:#fcce8b;}.cls-91{fill:#fbce8a;}.cls-92{fill:#facf8a;}.cls-93{fill:#fad08a;}.cls-94{fill:#f9d18a;}.cls-95{fill:#f8d28a;}.cls-96{fill:#f7d38a;}.cls-97{fill:#f7d48a;}.cls-98{fill:#f6d58a;}.cls-99{fill:#f5d68a;}.cls-100{fill:#f4d78a;}.cls-101{fill:#f3d889;}.cls-102{fill:#f3d989;}.cls-103{fill:#f2da89;}.cls-104{fill:#f1db89;}.cls-105{fill:#f0dc89;}.cls-106{fill:#efde89;}.cls-107{fill:#eedf89;}.cls-108{fill:#ede089;}.cls-109{fill:#ede189;}.cls-110{fill:#ece288;}.cls-111{fill:#ebe388;}.cls-112{fill:#eae588;}.cls-113{fill:#e9e688;}.cls-114{fill:#e8e788;}.cls-115{fill:#e7e888;}.cls-116{fill:#e6ea88;}.cls-117{fill:#e5eb88;}.cls-118{fill:#e4ec87;}.cls-119{fill:#e3ed87;}.cls-120{fill:#e2ef87;}.cls-121{fill:#e1f087;}.cls-122{fill:#31515d;}.cls-123{clip-path:url(#clip-path-2);}.cls-124{fill:#526d78;}.cls-125{fill:#516d77;}.cls-126{fill:#506c76;}.cls-127{fill:#546f7a;}.cls-128{fill:#536e79;}.cls-129{fill:#55707a;}.cls-130{fill:#607a84;}.cls-131{fill:#5f7983;}.cls-132{fill:#5e7883;}.cls-133{fill:#5e7882;}.cls-134{fill:#5d7781;}.cls-135{fill:#5c7781;}.cls-136{fill:#5b7680;}.cls-137{fill:#5b7580;}.cls-138{fill:#5a757f;}.cls-139{fill:#59747e;}.cls-140{fill:#58737e;}.cls-141{fill:#57727d;}.cls-142{fill:#56727c;}.cls-143{fill:#55717b;}.cls-144{fill:#4e6b75;}.cls-145{fill:#4d6a75;}.cls-146{fill:#4c6974;}.cls-147{fill:#4b6873;}.cls-148{fill:#4a6772;}.cls-149{fill:#496671;}.cls-150{fill:#486570;}.cls-151{fill:#47646f;}.cls-152{fill:#45636e;}.cls-153{fill:#44626d;}.cls-154{fill:#43616c;}.cls-155{fill:#42606b;}.cls-156{fill:#415f6a;}.cls-157{fill:#3f5e69;}.cls-158{fill:#3e5c68;}.cls-159{fill:#3d5b67;}.cls-160{fill:#3c5a66;}.cls-161{fill:#3a5965;}.cls-162{fill:#395864;}.cls-163{fill:#385763;}.cls-164{fill:#365661;}.cls-165{fill:#355560;}.cls-166{fill:#34535f;}.cls-167{fill:#32525e;}.cls-168{opacity:0.27;}.cls-169{fill:#fff;}.cls-170{clip-path:url(#clip-path-3);}.cls-171{clip-path:url(#clip-path-4);}.cls-172{clip-path:url(#clip-path-5);}</style><linearGradient id="Dégradé_sans_nom_449" x1="159.31" y1="48.87" x2="175.23" y2="48.87" gradientUnits="userSpaceOnUse"><stop offset="0" stop-color="#ffbce5"/><stop offset="0.1" stop-color="#ffbddc"/><stop offset="0.27" stop-color="#ffc1c2"/><stop offset="0.48" stop-color="#ffc799"/><stop offset="0.55" stop-color="#ffc98b"/><stop offset="0.72" stop-color="#f6d48a"/><stop offset="1" stop-color="#e1f087"/></linearGradient><clipPath id="clip-path"><circle class="cls-1" cx="117.36" cy="80.14" r="48.76"/></clipPath><clipPath id="clip-path-2"><path class="cls-1" d="M99,125.74l.38-.33h0l1.08-.13a.87.87,0,0,1-.57.66,87.07,87.07,0,0,0,22.24,1.31l29.07-10.84a44.43,44.43,0,0,0,14.32-27.74,5.93,5.93,0,0,1-.56-.43,3.81,3.81,0,0,0-2.41-1,.51.51,0,0,1-.33-.15,2.64,2.64,0,0,0-1.25-.73,3.07,3.07,0,0,0-4,3.16,4.9,4.9,0,0,0,1.51,3A5.37,5.37,0,0,1,159,93s.05-.05.06,0,.11.12.17.14a2.5,2.5,0,0,0,.4,0s0,0,0,0h.09c0,.16.07.39,0,.48a17.65,17.65,0,0,1-1.26,1.33,1.21,1.21,0,0,0-.08,1.91l-1.42,1.43a1.73,1.73,0,0,1-.13-.21c-.3-.58-.57-1.18-.9-1.74a2.38,2.38,0,0,1-.32-1.4,12.88,12.88,0,0,0,0-2.06,9.7,9.7,0,0,1,.1-2.22c.16-1,.31-2.06.46-3.09a.6.6,0,0,0-.27-.63c-.36-.26-.74-.5-1.1-.75-.07,0-.18-.13-.18-.2,0-.41,0-.82-.07-1.29.21.15.38.24.53.37a3.26,3.26,0,0,0,2.39.8c.55,0,1.11.09,1.47-.55a1.69,1.69,0,0,0,1.5.87,2,2,0,0,0,1.54-.47l1.23.53a1.32,1.32,0,0,1,.45.2c.66.65,1.3,1.31,1.94,2a56.93,56.93,0,0,0,0-13.84,5.93,5.93,0,0,0-1.12-.16,1.59,1.59,0,0,0-1.57,1.29c-.05.46-.12.93-.15,1.39a2,2,0,0,0,.55,1.68c0,.06.12.15.1.21a1.16,1.16,0,0,0,.33,1c.16.22.32.16.46,0a1.71,1.71,0,0,0,.19-.33l.72.81a2.64,2.64,0,0,1-.52.08c-.3,0-.59,0-.89-.07s-.57,0-.67.39a.26.26,0,0,1-.34.22.69.69,0,0,0-.74.68c0,.09,0,.18,0,.29a2.06,2.06,0,0,0-.92-.16,1.14,1.14,0,0,1-.25-.06.61.61,0,0,0-.26,0,7.8,7.8,0,0,0-1.53.39,2.57,2.57,0,0,1-2.05.05l-.42-.1-2.07-.54c0-.11,0-.2,0-.29a16.16,16.16,0,0,0-1-6.31,4.42,4.42,0,0,1-.19-1.2c0-.72,0-1.44,0-2.16a5,5,0,0,1,.09-1c.07-.45.2-.89.27-1.34,0-.13-.11-.27-.16-.41-.1.1-.24.18-.29.3-.11.32-.18.65-.28,1a4.52,4.52,0,0,1-.25.49l-.1,0,0-.29c0-.63-.05-1.26-.1-1.89,0-.1-.13-.19-.2-.29-.11.08-.25.14-.3.25a.84.84,0,0,0,0,.39c0,.47,0,.93,0,1.4a.79.79,0,0,1-.13.26,1.43,1.43,0,0,1-.19-.24c-.23-.55-.44-1.11-.68-1.66a2,2,0,0,0-.35-.42l-.25.1a1.68,1.68,0,0,0,0,.45c.2.59.42,1.17.63,1.75,0,.1,0,.2.08.3l-.09.06a1.37,1.37,0,0,1-.22-.27c-.25-.5-.47-1-.73-1.49-.1-.19-.17-.52-.48-.38s-.12.4,0,.59c.21.57.45,1.11.67,1.67a7,7,0,0,1,.3.88c.06.32-.08.47-.39.39a3,3,0,0,1-.81-.36.73.73,0,0,0-1,0l1,.8a3.55,3.55,0,0,0,1.39.75.89.89,0,0,1,.7.79,20.81,20.81,0,0,1,.52,4.38c0,.93.1,1.85.16,2.81l-1-.38a1.14,1.14,0,0,1-.75-1,3.18,3.18,0,0,0-.28-.67,6.69,6.69,0,0,1-.2-.77c0-.09,0-.18-.05-.26a.59.59,0,0,0-.27,0,.77.77,0,0,0-.24.93c.12.43-.13.72-.56.63a1.58,1.58,0,0,1-.48-.28,6.26,6.26,0,0,0-.62-.43c-.11-.05-.28,0-.42,0a1.45,1.45,0,0,0,.12.4c.11.15.29.24.41.39a1.23,1.23,0,0,1,.11.34,1,1,0,0,1-.3,0,7.77,7.77,0,0,0-.95-.14c-.14,0-.28.19-.43.29.1.08.19.2.31.23.36.12.73.21,1.1.31a.86.86,0,0,1-.33.11c-.31.06-.63.11-.94.18s-.33.12-.27.34.21.23.42.2.64,0,1-.06a5.1,5.1,0,0,1-.88.63c-.17.09-.37.2-.26.42s.31.1.49,0a4.83,4.83,0,0,1,1.14-.45,6.11,6.11,0,0,1,2.93.33c.37.14.7.35,1,.52s.47.21.33.7-.26.71-.4,1.07a7.4,7.4,0,0,0-.27,1.63.71.71,0,0,1-.09.28.68.68,0,0,0,0,.69.53.53,0,0,1,0,.33c-.12.43-.25.87-.39,1.29a1.19,1.19,0,0,1-.21.47,1.28,1.28,0,0,0-.36,1c0,.09-.06.26-.13.27-.35.08-.31.32-.27.51l-.53.61a3.37,3.37,0,0,0-.54-.44.4.4,0,0,1-.22-.38c-.12-1-.21-2-.42-3-.17-.75-.52-1.45-.75-2.19a2.9,2.9,0,0,0-3.15-1.78,4.49,4.49,0,0,0-3,2.25,2.67,2.67,0,0,0-.29,1.48c0,1.14.85,1.84,1.43,2.67.19.28.46.54.65.85s.31.55.73.31l.85,1.43-.76.78a2.66,2.66,0,0,1-.55-.11c-.2-.1-.36-.29-.56-.41a2.32,2.32,0,0,0-.39-.18c-.08,0-.18-.05-.23-.11-.57-.65-1.11-1.32-1.68-2s-.8-1.21-1.51-1.56a3.35,3.35,0,0,1-1.48-1.45,13.79,13.79,0,0,0-2.77-3.46,35.61,35.61,0,0,1-2.64-3.2,1,1,0,0,1-.09-1,2.46,2.46,0,0,0,.2-.83c0-.67,0-1.33-.08-2,0-.24-.21-.34-.35-.17a2,2,0,0,0-.36.72,6.33,6.33,0,0,0,0,.76c0,.09-.06.26-.1.26a.41.41,0,0,1-.35-.08,3.25,3.25,0,0,1-.41-.61c-.37-.71-.73-1.44-1.1-2.16-.08-.16-.21-.31-.42-.22s-.19.3-.11.49a1,1,0,0,0,.07.15c.22.54.45,1.09.66,1.63a.8.8,0,0,1,0,.3c-.45-.7-.87-1.35-1.3-2-.11-.16-.26-.35-.45-.18s-.07.32-.09.49a.34.34,0,0,0,.07.15l1.11,1.78a1.59,1.59,0,0,1,.07.2l-.08.06-.89-.68c-.3-.23-.59-.47-.91-.68-.09,0-.25,0-.38,0s0,.26.06.35a2.13,2.13,0,0,0,.34.33l1.39,1.31a.46.46,0,0,1-.31,0c-.4-.21-.8-.44-1.21-.63-.11-.05-.28,0-.42,0a.86.86,0,0,0,.18.37,7.06,7.06,0,0,0,1,.62,4.5,4.5,0,0,1,1.33,1.13,14,14,0,0,0,1.26,1.17,7.31,7.31,0,0,1,.8.77,5,5,0,0,1,.46.85,13,13,0,0,0,2.54,3.76,18.57,18.57,0,0,1,2.65,3.28.88.88,0,0,1,.12.65,11.68,11.68,0,0,0-.2,1.68,1,1,0,0,0,.59,1c1,.47,1.47,1.46,2.25,2.24l-.23,0c-.83.2-1.71.3-2.12,1.22a.16.16,0,0,1-.09.09,1.43,1.43,0,0,0-.62,1.67,4.38,4.38,0,0,0,1,1.77,1.32,1.32,0,0,1,.46,1,1.53,1.53,0,0,1-.46-.37,3.89,3.89,0,0,0-1.88-1.49l.71-.27a1.75,1.75,0,0,1-.68,0c-.19-.06-.33-.28-.5-.44l.17-.13-.06-.07c-.79.53-1.88.72-2,1.91-.38-.12-.64-.25-.59-.65.08-.61-.39-.87-.81-1.08a.72.72,0,0,1-.41-.54c-.14-.47-.29-1-.45-1.42,0-.09-.15-.16-.23-.23,0,.1-.15.19-.16.29a3.07,3.07,0,0,0,.07.6c.05.29.12.59.18.88-.23-.51-.41-1-.62-1.55,0-.09-.18-.15-.27-.22a2,2,0,0,0-.15.33.59.59,0,0,0,0,.26c.13.48.29,1,.39,1.45a2,2,0,0,1,0,.94c-.12.43-.21.81.13,1.15l-1.15,1c-1.08-.26-2.2-.54-3.32-.79a5.35,5.35,0,0,0-.8,0c-.14,0-.37,0-.38-.12-.1-.45-.5-.83-.34-1.35a.26.26,0,0,0,0-.18.28.28,0,0,0-.22,0c-.24.12-.23.34-.2.57.07.41-.08.54-.48.41a2.65,2.65,0,0,1-.54-.25c-.21-.1-.4-.24-.62-.33a1.43,1.43,0,0,0-.42,0,1.65,1.65,0,0,0,.24.33c.25.18.52.32.78.48a7.56,7.56,0,0,1-1.11-.34,1,1,0,0,0-.38,0c.07.11.13.25.23.3.29.15.6.26.9.39a7.36,7.36,0,0,1-.83-.06c-.09,0-.18.06-.27.09.06.07.12.19.2.22.24.06.48.07.72.12l.5.13c-.37.19-.75,0-1,.33a10.93,10.93,0,0,0,1.39.15l1.45.13a1.91,1.91,0,0,0,0,.28c-.06.77-.06.83.68,1a34.55,34.55,0,0,1,4.17,1.5c.29.12.55.2.49.63-.07.65.08.75.68.64.12.11.28.19.34.32s.44.19.48.51.27.48.64.33l.72-.26a.25.25,0,0,1-.07.2c-.47.44-1,.86-1.4,1.31a1.81,1.81,0,0,1-1.39.66.71.71,0,0,1-.42-.17s.05-.22.1-.33a2.45,2.45,0,0,0,.24-.67,5.27,5.27,0,0,0-.1-.88c0-.25.06-.54-.06-.73a3.15,3.15,0,0,0-1.36-1.44.94.94,0,0,1-.61-.76l-.27.2a1.43,1.43,0,0,0-1.14-.34c-.55.1-1.11.09-1.66.16a.72.72,0,0,0-.64.63,1.48,1.48,0,0,1-.13.35c-.14.26-.31.51-.44.78a1.1,1.1,0,0,0,0,.45c0,.2,0,.4,0,.69l-.17-.17,0,0,.28.37c-.22.2-.28.39,0,.58.05,0,.06.11.07.17a2.51,2.51,0,0,0,.11.63c.15.26.56.33.52.73l.09,0a2.15,2.15,0,0,0,1.06.4.23.23,0,0,1,.18.09,1.13,1.13,0,0,0,.78.37c.33,0,.7,0,.86.46a1.38,1.38,0,0,0-.3.29c-.11.17-.2.31-.44.27,0,0-.12,0-.18.08a1.79,1.79,0,0,1-.54.23c-.32,0-.61,0-.83.3-.07.08-.24.09-.44.17.13-.33-.12-.64.18-.88,0,0,0-.15,0-.23,0-.61-.43-1.05-.66-1.56a1.49,1.49,0,0,0-1.65-.87l-.35,0c.12-.39.2-.76.34-1.1a2.19,2.19,0,0,0,.12-1.93,4.9,4.9,0,0,1-.33-1.29c0-.16-.2-.42-.28-.41-.29,0-.17.29-.17.48s0,.2,0,.3,0,.14,0,.21l-.14-.06a8.41,8.41,0,0,0-.19-.87c0-.14-.2-.37-.29-.36-.26,0-.16.25-.15.42,0,.44.08.89.12,1.28a1.6,1.6,0,0,0-.56,0c-.09,0-.1.27-.15.44-.24,0-.33.18-.31.42a5.29,5.29,0,0,0,.13.78,3.93,3.93,0,0,1,.28,1.25c-.14.89-.44,1.75-.67,2.63l-.11,0-.93-1.75a.61.61,0,0,1,0-.13,44.41,44.41,0,0,0-1-5.6,1.47,1.47,0,0,1,0-.69,5.43,5.43,0,0,0-.66-3.42s0,0,0,0l-.22-.09a.45.45,0,0,0-.06.21,3.11,3.11,0,0,0,.11.41c-.22-.27-.39-.57-.6-.83-.08-.1-.26-.13-.39-.19l-.08.33-.16-.22c-.1-.14-.19-.35-.4-.23-.05,0,0,.31,0,.44.14.33.32.65.49,1-.28-.26-.49-.57-.74-.85-.07-.09-.23-.11-.35-.16,0,.13-.06.29,0,.39.25.42.52.82.8,1.23a.93.93,0,0,1,.19.85c-.65-.5-1-.58-1.27-.34a12.51,12.51,0,0,0,1.45,1.29,1.69,1.69,0,0,1,.78,1.4c0,.15,0,.3.07.46.14,1.2.26,2.4.41,3.59.11.79.23,1.58.4,2.36a11.36,11.36,0,0,0,.45,1.23c-.66-.4-1.39-.7-1.58-1.53a.66.66,0,0,0-.14-.26,11.06,11.06,0,0,1-1.82-3.9,1,1,0,0,1,.18-.91c.22-.33.39-.69.61-1s.31-.4-.15-.38c0,0-.06-.1-.11-.14l-.32-.26c-.2-.18-.43-.12-.66-.12-.64,0-.92.35-.75,1,0,.08,0,.17,0,.26a8.71,8.71,0,0,0,0,1.25,11.9,11.9,0,0,0,.28,1.29,10.75,10.75,0,0,0,.88,3c.12.22.22.45.34.69-1,.44-1.88.9-1.88,2.16a2.18,2.18,0,0,0-1.25-1.27,3.31,3.31,0,0,0-2-.12.7.7,0,0,1-.52,0c-.84-.71-1.65-1.45-2.47-2.19a.65.65,0,0,1-.19-.33,7.41,7.41,0,0,1-.25-2.34s0-.06-.06-.12c-.63.25-.34.9-.58,1.31a1.18,1.18,0,0,1-.82-.52c-.23-.29-.45-.6-.71-.88a1.2,1.2,0,0,0-.41-.19,1.51,1.51,0,0,0,.11.43c.19.32.42.62.63.93-.32-.29-.59-.61-.9-.9-.11-.1-.36-.22-.42-.17-.21.17,0,.3.12.42s.34.44.5.65l-.06.06a4,4,0,0,0-.37-.33,2.42,2.42,0,0,0-.36-.17,2.73,2.73,0,0,0,.1.41.94.94,0,0,0,.16.23c-.32.12-.18.29-.06.43a5.38,5.38,0,0,0,2.42,1.81.75.75,0,0,1,.31.18l1.94,2.16c-.75,1.78,0,3.52.13,5.3-.31-.54-.61-1.07-1.35-.89-.52-1.11-1.24-1.57-2.22-1.39a1.94,1.94,0,0,0-1.36.93,2.18,2.18,0,0,0-.35,1.66c-.31-.17-.44-.49-.84-.43-.17,0-.37-.17-.58,0,0,0-.12,0-.19,0a4.89,4.89,0,0,0-.66,0c-.2,0-.48.15-.59.07s-.33,0-.46.06-.46.35-.71.51a.79.79,0,0,0-.46.6,3.26,3.26,0,0,0,.26,1.59,1.86,1.86,0,0,1,.08,1.13l-1-.19a.92.92,0,0,0-.1-.2,1.13,1.13,0,0,1,0-1.43,1.54,1.54,0,0,0-.55-2l.25.68-.1,0a.55.55,0,0,0-.47.83.36.36,0,0,1,0,.3,1.14,1.14,0,0,0,0,1.17c.09.18.14.37.22.56a.45.45,0,0,1-.08.58,1.65,1.65,0,0,0-.3.72,2.5,2.5,0,0,0,.32,1.63C97.11,125.28,98,125.52,99,125.74Zm38.81-22.92.26.7C137.66,103.37,137.83,103.06,137.8,102.82Zm-.31.3c-.31-.18-.58-.32-.56-.71A.69.69,0,0,1,137.49,103.12Zm-15.87,10.72s.14,0,.18.08.2.29.31.46l-.57.21c0-.24,0-.41,0-.59A.24.24,0,0,1,121.62,113.84Zm-9.19,1.36a5.54,5.54,0,0,0,.22-.69c.2,1.55,1.26,2.57,2.22,3.66l-.07.06c-.15-.1-.28-.26-.44-.29a2.41,2.41,0,0,1-1.35-1c-.07-.07-.15-.22-.13-.25.26-.35,0-.5-.22-.68A.64.64,0,0,1,112.43,115.2Zm-4.76,6.29-.16.39c-.49-.17-.61-.34-.62-.91ZM103,121.2l-.16-.12.16-.2,1,.23.75,1.58-1,1.08-1.3-1.45a.69.69,0,0,0-.07-.88Zm-3.79,2a.53.53,0,0,0,.74.29c.09,0,.18-.14.26-.13s.34.07.39.16,0,.28-.23.32-.65.12-.94.18l-.74-1.35A2.18,2.18,0,0,1,99.16,123.16Z"/></clipPath><clipPath id="clip-path-3"><polygon class="cls-1" points="87.58 85.97 105.19 78.21 88.25 86.89 87.58 85.97"/></clipPath><clipPath id="clip-path-4"><polygon class="cls-1" points="89.42 88.06 107.02 80.3 90.08 88.97 89.42 88.06"/></clipPath><clipPath id="clip-path-5"><path class="cls-1" d="M77.8,103.83a26.25,26.25,0,0,0,3.39,3.09,10.09,10.09,0,0,0,4,1.69,12.73,12.73,0,0,0,4.35-.13c.72-.11,1.42-.4,2.13-.57l2.08-.83-.09,0a11.93,11.93,0,0,0,3.71-3.74,16.41,16.41,0,0,0,1.3-2.46,16.91,16.91,0,0,1,1.3-2.77,9,9,0,0,1,2.2-2.16A8.76,8.76,0,0,1,105,94.78a15.76,15.76,0,0,1,6-.18c.51.07,1,.12,1.4.15a6.11,6.11,0,0,0,1.35-.12,6.75,6.75,0,0,0,2.49-1.08,5.8,5.8,0,0,0,1.83-2,2.32,2.32,0,0,0,.09-2.38,1.57,1.57,0,0,0-.94-.67,5,5,0,0,0-1.34,0c-.93.1-1.88.32-2.87.42a4.51,4.51,0,0,1-3-.5,3,3,0,0,1-1-1.2,4.57,4.57,0,0,1-.3-.74,1.86,1.86,0,0,1,0-.85,6.12,6.12,0,0,1,1.75-2.46,25.3,25.3,0,0,1,2.26-1.88c1.57-1.15,3.22-2.2,4.89-3.19,3.35-2,6.79-3.76,10.27-5.49,7-3.43,14-6.61,21.17-9.68-7.1,3.12-14.17,6.32-21.09,9.84-3.45,1.78-6.86,3.62-10.17,5.64-1.65,1-3.27,2.08-4.8,3.24a24.53,24.53,0,0,0-2.19,1.87,5.8,5.8,0,0,0-1.56,2.25,1.2,1.2,0,0,0,0,.59,3,3,0,0,0,.26.59,2.46,2.46,0,0,0,.85,1,3.92,3.92,0,0,0,2.62.36c.94-.11,1.88-.34,2.87-.46a5.11,5.11,0,0,1,1.56,0,2.3,2.3,0,0,1,1.39.94,3.07,3.07,0,0,1,0,3.14,6.63,6.63,0,0,1-2,2.3,7.83,7.83,0,0,1-2.79,1.26,7.35,7.35,0,0,1-1.55.16c-.53,0-1-.07-1.49-.13a15,15,0,0,0-5.6.24,7.14,7.14,0,0,0-4.35,3.08,10.88,10.88,0,0,0-.88,2.59A17.33,17.33,0,0,1,99,104.26a10.32,10.32,0,0,1-1.77,2.6,11.71,11.71,0,0,1-2.48,2l-.06,0h0c-.77.3-1.53.6-2.3.88a22.21,22.21,0,0,1-2.42.53,12.48,12.48,0,0,1-5-.21,11.32,11.32,0,0,1-4.39-2.28A7.65,7.65,0,0,1,77.8,103.83Z"/></clipPath></defs><polygon class="cls-2" points="159.71 47.46 159.31 51.88 175.23 46.99 175.16 45.86 159.71 47.46"/><g id="Cercle"><g class="cls-3"><rect class="cls-4" x="68.6" y="31.38" width="0.13" height="97.52"/><rect class="cls-4" x="68.73" y="31.38" width="0.59" height="97.52"/><rect class="cls-4" x="69.32" y="31.38" width="0.59" height="97.52"/><rect class="cls-5" x="69.91" y="31.38" width="0.59" height="97.52"/><rect class="cls-5" x="70.5" y="31.38" width="0.59" height="97.52"/><rect class="cls-5" x="71.1" y="31.38" width="0.59" height="97.52"/><rect class="cls-6" x="71.69" y="31.38" width="0.59" height="97.52"/><rect class="cls-6" x="72.28" y="31.38" width="0.59" height="97.52"/><rect class="cls-7" x="72.87" y="31.38" width="0.59" height="97.52"/><rect class="cls-8" x="73.46" y="31.38" width="0.59" height="97.52"/><rect class="cls-8" x="74.05" y="31.38" width="0.59" height="97.52"/><rect class="cls-9" x="74.65" y="31.38" width="0.59" height="97.52"/><rect class="cls-9" x="75.24" y="31.38" width="0.59" height="97.52"/><rect class="cls-10" x="75.83" y="31.38" width="0.59" height="97.52"/><rect class="cls-11" x="76.42" y="31.38" width="0.59" height="97.52"/><rect class="cls-12" x="77.01" y="31.38" width="0.59" height="97.52"/><rect class="cls-12" x="77.6" y="31.38" width="0.59" height="97.52"/><rect class="cls-13" x="78.2" y="31.38" width="0.59" height="97.52"/><rect class="cls-14" x="78.79" y="31.38" width="0.59" height="97.52"/><rect class="cls-15" x="79.38" y="31.38" width="0.59" height="97.52"/><rect class="cls-15" x="79.97" y="31.38" width="0.59" height="97.52"/><rect class="cls-16" x="80.56" y="31.38" width="0.59" height="97.52"/><rect class="cls-17" x="81.15" y="31.38" width="0.59" height="97.52"/><rect class="cls-18" x="81.75" y="31.38" width="0.59" height="97.52"/><rect class="cls-19" x="82.34" y="31.38" width="0.59" height="97.52"/><rect class="cls-20" x="82.93" y="31.38" width="0.59" height="97.52"/><rect class="cls-20" x="83.52" y="31.38" width="0.59" height="97.52"/><rect class="cls-21" x="84.11" y="31.38" width="0.59" height="97.52"/><rect class="cls-22" x="84.7" y="31.38" width="0.59" height="97.52"/><rect class="cls-23" x="85.3" y="31.38" width="0.59" height="97.52"/><rect class="cls-24" x="85.89" y="31.38" width="0.59" height="97.52"/><rect class="cls-25" x="86.48" y="31.38" width="0.59" height="97.52"/><rect class="cls-26" x="87.07" y="31.38" width="0.59" height="97.52"/><rect class="cls-27" x="87.66" y="31.38" width="0.59" height="97.52"/><rect class="cls-28" x="88.25" y="31.38" width="0.59" height="97.52"/><rect class="cls-29" x="88.85" y="31.38" width="0.59" height="97.52"/><rect class="cls-30" x="89.44" y="31.38" width="0.59" height="97.52"/><rect class="cls-31" x="90.03" y="31.38" width="0.59" height="97.52"/><rect class="cls-32" x="90.62" y="31.38" width="0.59" height="97.52"/><rect class="cls-33" x="91.21" y="31.38" width="0.59" height="97.52"/><rect class="cls-34" x="91.8" y="31.38" width="0.59" height="97.52"/><rect class="cls-35" x="92.4" y="31.38" width="0.59" height="97.52"/><rect class="cls-36" x="92.99" y="31.38" width="0.59" height="97.52"/><rect class="cls-37" x="93.58" y="31.38" width="0.59" height="97.52"/><rect class="cls-38" x="94.17" y="31.38" width="0.59" height="97.52"/><rect class="cls-39" x="94.76" y="31.38" width="0.59" height="97.52"/><rect class="cls-40" x="95.35" y="31.38" width="0.59" height="97.52"/><rect class="cls-41" x="95.95" y="31.38" width="0.59" height="97.52"/><rect class="cls-42" x="96.54" y="31.38" width="0.59" height="97.52"/><rect class="cls-43" x="97.13" y="31.38" width="0.59" height="97.52"/><rect class="cls-44" x="97.72" y="31.38" width="0.59" height="97.52"/><rect class="cls-45" x="98.31" y="31.38" width="0.59" height="97.52"/><rect class="cls-46" x="98.9" y="31.38" width="0.59" height="97.52"/><rect class="cls-47" x="99.5" y="31.38" width="0.59" height="97.52"/><rect class="cls-48" x="100.09" y="31.38" width="0.59" height="97.52"/><rect class="cls-49" x="100.68" y="31.38" width="0.59" height="97.52"/><rect class="cls-50" x="101.27" y="31.38" width="0.59" height="97.52"/><rect class="cls-51" x="101.86" y="31.38" width="0.59" height="97.52"/><rect class="cls-52" x="102.45" y="31.38" width="0.59" height="97.52"/><rect class="cls-53" x="103.05" y="31.38" width="0.59" height="97.52"/><rect class="cls-54" x="103.64" y="31.38" width="0.59" height="97.52"/><rect class="cls-55" x="104.23" y="31.38" width="0.59" height="97.52"/><rect class="cls-56" x="104.82" y="31.38" width="0.59" height="97.52"/><rect class="cls-57" x="105.41" y="31.38" width="0.59" height="97.52"/><rect class="cls-58" x="106" y="31.38" width="0.59" height="97.52"/><rect class="cls-59" x="106.6" y="31.38" width="0.59" height="97.52"/><rect class="cls-60" x="107.19" y="31.38" width="0.59" height="97.52"/><rect class="cls-61" x="107.78" y="31.38" width="0.59" height="97.52"/><rect class="cls-62" x="108.37" y="31.38" width="0.59" height="97.52"/><rect class="cls-63" x="108.96" y="31.38" width="0.59" height="97.52"/><rect class="cls-64" x="109.55" y="31.38" width="0.59" height="97.52"/><rect class="cls-65" x="110.15" y="31.38" width="0.59" height="97.52"/><rect class="cls-66" x="110.74" y="31.38" width="0.59" height="97.52"/><rect class="cls-67" x="111.33" y="31.38" width="0.59" height="97.52"/><rect class="cls-68" x="111.92" y="31.38" width="0.59" height="97.52"/><rect class="cls-69" x="112.51" y="31.38" width="0.59" height="97.52"/><rect class="cls-70" x="113.1" y="31.38" width="0.59" height="97.52"/><rect class="cls-71" x="113.7" y="31.38" width="0.59" height="97.52"/><rect class="cls-72" x="114.29" y="31.38" width="0.59" height="97.52"/><rect class="cls-73" x="114.88" y="31.38" width="0.59" height="97.52"/><rect class="cls-74" x="115.47" y="31.38" width="0.59" height="97.52"/><rect class="cls-75" x="116.06" y="31.38" width="0.59" height="97.52"/><rect class="cls-76" x="116.65" y="31.38" width="0.59" height="97.52"/><rect class="cls-77" x="117.25" y="31.38" width="0.59" height="97.52"/><rect class="cls-78" x="117.84" y="31.38" width="0.59" height="97.52"/><rect class="cls-79" x="118.43" y="31.38" width="0.59" height="97.52"/><rect class="cls-80" x="119.02" y="31.38" width="0.59" height="97.52"/><rect class="cls-81" x="119.61" y="31.38" width="0.59" height="97.52"/><rect class="cls-82" x="120.2" y="31.38" width="0.59" height="97.52"/><rect class="cls-83" x="120.8" y="31.38" width="0.59" height="97.52"/><rect class="cls-84" x="121.39" y="31.38" width="0.59" height="97.52"/><rect class="cls-84" x="121.98" y="31.38" width="1.13" height="97.52"/><rect class="cls-84" x="123.11" y="31.38" width="1.13" height="97.52"/><rect class="cls-85" x="124.24" y="31.38" width="1.13" height="97.52"/><rect class="cls-86" x="125.37" y="31.38" width="1.13" height="97.52"/><rect class="cls-87" x="126.51" y="31.38" width="1.13" height="97.52"/><rect class="cls-88" x="127.64" y="31.38" width="1.13" height="97.52"/><rect class="cls-89" x="128.77" y="31.38" width="1.13" height="97.52"/><rect class="cls-90" x="129.9" y="31.38" width="1.13" height="97.52"/><rect class="cls-91" x="131.03" y="31.38" width="1.13" height="97.52"/><rect class="cls-92" x="132.16" y="31.38" width="1.13" height="97.52"/><rect class="cls-93" x="133.3" y="31.38" width="1.13" height="97.52"/><rect class="cls-94" x="134.43" y="31.38" width="1.13" height="97.52"/><rect class="cls-95" x="135.56" y="31.38" width="1.13" height="97.52"/><rect class="cls-96" x="136.69" y="31.38" width="1.13" height="97.52"/><rect class="cls-97" x="137.82" y="31.38" width="1.13" height="97.52"/><rect class="cls-98" x="138.95" y="31.38" width="1.13" height="97.52"/><rect class="cls-99" x="140.09" y="31.38" width="1.13" height="97.52"/><rect class="cls-100" x="141.22" y="31.38" width="1.13" height="97.52"/><rect class="cls-101" x="142.35" y="31.38" width="1.13" height="97.52"/><rect class="cls-102" x="143.48" y="31.38" width="1.13" height="97.52"/><rect class="cls-103" x="144.61" y="31.38" width="1.13" height="97.52"/><rect class="cls-104" x="145.74" y="31.38" width="1.13" height="97.52"/><rect class="cls-105" x="146.88" y="31.38" width="1.13" height="97.52"/><rect class="cls-106" x="148.01" y="31.38" width="1.13" height="97.52"/><rect class="cls-107" x="149.14" y="31.38" width="1.13" height="97.52"/><rect class="cls-108" x="150.27" y="31.38" width="1.13" height="97.52"/><rect class="cls-109" x="151.4" y="31.38" width="1.13" height="97.52"/><rect class="cls-110" x="152.53" y="31.38" width="1.13" height="97.52"/><rect class="cls-111" x="153.67" y="31.38" width="1.13" height="97.52"/><rect class="cls-112" x="154.8" y="31.38" width="1.13" height="97.52"/><rect class="cls-113" x="155.93" y="31.38" width="1.13" height="97.52"/><rect class="cls-114" x="157.06" y="31.38" width="1.13" height="97.52"/><rect class="cls-115" x="158.19" y="31.38" width="1.13" height="97.52"/><rect class="cls-116" x="159.32" y="31.38" width="1.13" height="97.52"/><rect class="cls-117" x="160.46" y="31.38" width="1.13" height="97.52"/><rect class="cls-118" x="161.59" y="31.38" width="1.13" height="97.52"/><rect class="cls-119" x="162.72" y="31.38" width="1.13" height="97.52"/><rect class="cls-120" x="163.85" y="31.38" width="1.13" height="97.52"/><rect class="cls-121" x="164.98" y="31.38" width="1.13" height="97.52"/></g></g><path class="cls-122" d="M77.8,103.83l-1.46-1.78-.59,3.52s13.3,29.49,50.78,22.46c40.42-8,39.53-50.29,39.53-50.29l-2.91-14.39-3.23-6.71-2.42.59-10.43,2.92-11.4,6.4-21.85,11.5s-5.65,6-5.94,6.31.85-2-8.57,5.27a143.52,143.52,0,0,1-12.62,9c-.66.57-5.37,1.79-5.37,1.79l-3.52,3.46"/><path class="cls-122" d="M112.27,89.27c1.63.32,4.06-1.47,5.23.37"/><g id="Guitare"><path class="cls-122" d="M85,89.61l-.42-.82L102.33,80l.48,1Z"/><path class="cls-122" d="M101.79,78.87l.46.95L84.43,88.49,84,87.72Z"/><path class="cls-122" d="M103.14,82.21c-1.22.57-2.45,1.13-3.66,1.71L85.86,90.55l-.29.12-.43-.77,17.75-8.83c0,.41.65.65.23,1.16Z"/><path class="cls-122" d="M103.12,82.23c.64,0,.47.6.79.88L86.12,91.76,85.71,91l1.66-.82,15.06-7.5a7.56,7.56,0,0,0,.71-.44Z"/><path class="cls-122" d="M164.57,45.31a1.33,1.33,0,0,0-.16.2c-.24.72-.88.75-1.44.68-.28,0-.56-.41-.76-.69s.47-.79.7-.84c.62-.12,1.22-.17,1.6.73a1.29,1.29,0,0,1,1.59-1.07c.3,0,.56.4.84.62-.29.5-.44.93-1.1,1A1.36,1.36,0,0,1,164.57,45.31Z"/><path class="cls-122" d="M174.5,44.17a1.24,1.24,0,0,1-2.34.25A1.25,1.25,0,0,1,174.5,44.17Z"/><path class="cls-122" d="M170.35,45.41c-.18-.18-.56-.4-.6-.66a1.28,1.28,0,0,1,.46-.86,1.38,1.38,0,0,1,1.5.2c.12.14.28.4.23.49a1.83,1.83,0,0,1-.62.7A3.06,3.06,0,0,1,170.35,45.41Z"/><path class="cls-122" d="M161.82,45.59c-.16.85-.83,1-1.5.9-.29,0-.74-.43-.74-.66a1.1,1.1,0,0,1,.62-.83A1.13,1.13,0,0,1,161.82,45.59Z"/><path class="cls-122" d="M169.43,44.72a1.13,1.13,0,0,1-1.46.88c-.31-.05-.76-.4-.79-.66a1.11,1.11,0,0,1,.61-.82A1.13,1.13,0,0,1,169.43,44.72Z"/><path class="cls-122" d="M178.07,47.35a2.38,2.38,0,0,0-.53-1.08,3.87,3.87,0,0,0-3.88-1.14c-3.47.52-6.95.93-10.43,1.39l-4.09.53a3,3,0,0,1-.89,2.45c-.19.22-.12.39,0,.6.66,1.46,1.32,2.92,2,4.39.13.31.28.45.63.41a4.21,4.21,0,0,1,2.76.71c.56.35,1.12.72,1.64,1.06.63-.6-.65.53,0,0a71.13,71.13,0,0,1,9.39-6.46c.78-.42,1.59-.8,2.37-1.22S178.23,48.21,178.07,47.35Zm-8.3-.05-7.5,1.35a.6.6,0,0,0-.41.32,2.35,2.35,0,0,1-1.94,1.85,5.74,5.74,0,0,0,.72-1.26,7.22,7.22,0,0,0,.13-1.65l13.44-1.58,0,.09C172.74,46.71,171.26,47,169.77,47.3Z"/></g><g id="Foule_blanche" data-name="Foule blanche"><g class="cls-123"><polygon class="cls-124" points="98.9 123.98 100.61 122.99 100.61 123.98 98.9 123.98"/><polygon class="cls-125" points="98.64 123 99.27 122.63 100.61 122.63 100.61 122.99 98.9 123.98 98.64 123.98 98.64 123"/><polygon class="cls-126" points="99.27 122.63 98.64 123 98.64 122.63 99.27 122.63"/><polygon class="cls-127" points="103.18 123.77 104.7 122.9 104.7 123.77 103.18 123.77"/><polygon class="cls-128" points="102.38 123.1 104.7 121.77 104.7 122.9 103.18 123.77 102.38 123.77 102.38 123.1"/><polygon class="cls-124" points="102.38 121.97 104.28 120.88 104.7 120.88 104.7 121.77 102.38 123.1 102.38 121.97"/><polygon class="cls-125" points="104.28 120.88 102.38 121.97 102.38 120.88 104.28 120.88"/><polygon class="cls-127" points="106.89 121.63 107.67 121.18 107.67 121.88 106.89 121.88 106.89 121.63"/><polygon class="cls-128" points="107.67 121.18 106.89 121.63 106.89 120.97 107.67 120.97 107.67 121.18"/><polygon class="cls-129" points="114.74 118.23 114.87 118.16 114.87 118.23 114.74 118.23"/><polygon class="cls-127" points="112.78 118.23 114.87 117.03 114.87 118.16 114.74 118.23 112.78 118.23"/><polygon class="cls-128" points="112.28 117.39 114.87 115.89 114.87 117.03 112.78 118.23 112.28 118.23 112.28 117.39"/><polygon class="cls-124" points="112.28 116.25 114.87 114.76 114.87 115.89 112.28 117.39 112.28 116.25"/><polygon class="cls-125" points="112.28 115.12 113.34 114.51 114.87 114.51 114.87 114.76 112.28 116.25 112.28 115.12"/><polygon class="cls-126" points="113.34 114.51 112.28 115.12 112.28 114.51 113.34 114.51"/><polygon class="cls-129" points="121.51 114.32 122.11 113.98 122.11 114.59 121.51 114.59 121.51 114.32"/><polygon class="cls-127" points="122.11 113.98 121.51 114.32 121.51 113.82 122.11 113.82 122.11 113.98"/><polygon class="cls-128" points="137 103.12 137.49 102.83 137.49 103.12 137 103.12"/><polygon class="cls-124" points="137.49 102.83 137 103.12 136.91 103.12 136.91 102.42 137.49 102.42 137.49 102.83"/><rect class="cls-128" x="137.66" y="102.82" width="0.4" height="0.7"/><polygon class="cls-130" points="131.66 127.7 166.22 107.75 166.22 127.7 131.66 127.7"/><polygon class="cls-130" points="129.7 127.7 166.22 106.61 166.22 107.75 131.66 127.7 129.7 127.7"/><polygon class="cls-130" points="127.74 127.7 166.22 105.48 166.22 106.61 129.7 127.7 127.74 127.7"/><polygon class="cls-131" points="125.78 127.7 166.22 104.35 166.22 105.48 127.74 127.7 125.78 127.7"/><polygon class="cls-131" points="123.82 127.7 166.22 103.22 166.22 104.35 125.78 127.7 123.82 127.7"/><polygon class="cls-132" points="121.86 127.7 166.22 102.09 166.22 103.22 123.82 127.7 121.86 127.7"/><polygon class="cls-133" points="119.9 127.7 166.22 100.96 166.22 102.09 121.86 127.7 119.9 127.7"/><polygon class="cls-134" points="117.94 127.7 166.22 99.83 166.22 100.96 119.9 127.7 117.94 127.7"/><polygon class="cls-135" points="115.98 127.7 166.22 98.69 166.22 99.83 117.94 127.7 115.98 127.7"/><polygon class="cls-136" points="114.02 127.7 166.22 97.56 166.22 98.69 115.98 127.7 114.02 127.7"/><polygon class="cls-137" points="112.06 127.7 166.22 96.43 166.22 97.56 114.02 127.7 112.06 127.7"/><polygon class="cls-138" points="110.1 127.7 166.22 95.3 166.22 96.43 112.06 127.7 110.1 127.7"/><polygon class="cls-139" points="108.14 127.7 166.22 94.17 166.22 95.3 110.1 127.7 108.14 127.7"/><polygon class="cls-140" points="106.18 127.7 166.22 93.04 166.22 94.17 108.14 127.7 106.18 127.7"/><polygon class="cls-141" points="104.22 127.7 166.22 91.91 166.22 93.04 106.18 127.7 104.22 127.7"/><polygon class="cls-142" points="102.26 127.7 166.22 90.77 166.22 91.91 104.22 127.7 102.26 127.7"/><polygon class="cls-143" points="100.3 127.7 166.22 89.64 166.22 90.77 102.26 127.7 100.3 127.7"/><polygon class="cls-129" points="98.34 127.7 166.22 88.51 166.22 89.64 100.3 127.7 98.34 127.7"/><polygon class="cls-127" points="96.38 127.7 166.22 87.38 166.22 88.51 98.34 127.7 96.38 127.7"/><polygon class="cls-128" points="95.79 126.91 166.22 86.25 166.22 87.38 96.38 127.7 95.79 127.7 95.79 126.91"/><polygon class="cls-124" points="95.79 125.78 166.22 85.12 166.22 86.25 95.79 126.91 95.79 125.78"/><polygon class="cls-125" points="95.79 124.65 166.22 83.98 166.22 85.12 95.79 125.78 95.79 124.65"/><polygon class="cls-126" points="95.79 123.52 166.22 82.85 166.22 83.98 95.79 124.65 95.79 123.52"/><polygon class="cls-144" points="95.79 122.39 166.22 81.72 166.22 82.85 95.79 123.52 95.79 122.39"/><polygon class="cls-145" points="95.79 121.25 166.22 80.59 166.22 81.72 95.79 122.39 95.79 121.25"/><polygon class="cls-146" points="95.79 120.12 166.22 79.46 166.22 80.59 95.79 121.25 95.79 120.12"/><polygon class="cls-147" points="95.79 118.99 166.22 78.33 166.22 79.46 95.79 120.12 95.79 118.99"/><polygon class="cls-148" points="95.79 117.86 166.22 77.19 166.22 78.33 95.79 118.99 95.79 117.86"/><polygon class="cls-149" points="95.79 116.73 166.22 76.06 166.22 77.19 95.79 117.86 95.79 116.73"/><polygon class="cls-150" points="95.79 115.6 166.22 74.93 166.22 76.06 95.79 116.73 95.79 115.6"/><polygon class="cls-151" points="95.79 114.46 166.22 73.8 166.22 74.93 95.79 115.6 95.79 114.46"/><polygon class="cls-152" points="95.79 113.33 166.22 72.67 166.22 73.8 95.79 114.46 95.79 113.33"/><polygon class="cls-153" points="95.79 112.2 166.22 71.54 166.22 72.67 95.79 113.33 95.79 112.2"/><polygon class="cls-154" points="95.79 111.07 166.07 70.49 166.22 70.75 166.22 71.54 95.79 112.2 95.79 111.07"/><polygon class="cls-155" points="95.79 109.94 165.58 69.64 166.07 70.49 95.79 111.07 95.79 109.94"/><polygon class="cls-156" points="95.79 108.81 165.09 68.8 165.58 69.64 95.79 109.94 95.79 108.81"/><polygon class="cls-157" points="95.79 107.67 164.36 68.08 164.68 68.08 165.09 68.8 95.79 108.81 95.79 107.67"/><polygon class="cls-158" points="95.79 106.54 162.4 68.08 164.36 68.08 95.79 107.67 95.79 106.54"/><polygon class="cls-159" points="95.79 105.41 160.44 68.08 162.4 68.08 95.79 106.54 95.79 105.41"/><polygon class="cls-160" points="95.79 104.28 158.48 68.08 160.44 68.08 95.79 105.41 95.79 104.28"/><polygon class="cls-161" points="95.79 103.15 156.52 68.08 158.48 68.08 95.79 104.28 95.79 103.15"/><polygon class="cls-162" points="95.79 102.02 154.56 68.08 156.52 68.08 95.79 103.15 95.79 102.02"/><polygon class="cls-163" points="95.79 100.89 152.6 68.08 154.56 68.08 95.79 102.02 95.79 100.89"/><polygon class="cls-164" points="95.79 99.75 150.64 68.08 152.6 68.08 95.79 100.89 95.79 99.75"/><polygon class="cls-165" points="95.79 98.62 148.68 68.08 150.64 68.08 95.79 99.75 95.79 98.62"/><polygon class="cls-166" points="95.79 97.49 146.72 68.08 148.68 68.08 95.79 98.62 95.79 97.49"/><polygon class="cls-167" points="95.79 96.36 144.76 68.08 146.72 68.08 95.79 97.49 95.79 96.36"/><polygon class="cls-122" points="95.79 95.23 142.8 68.08 144.76 68.08 95.79 96.36 95.79 95.23"/><polygon class="cls-122" points="142.8 68.08 95.79 95.23 95.79 68.08 142.8 68.08"/></g></g><g id="Foule_noir" data-name="Foule noir"><path class="cls-122" d="M141.89,112.41c-.51-1.12-1.23-1.58-2.22-1.4a1.94,1.94,0,0,0-1.36.93,2.18,2.18,0,0,0-.34,1.66c-.31-.17-.45-.48-.85-.43-.16,0-.37-.17-.58,0,0,0-.12,0-.18,0a4.89,4.89,0,0,0-.66,0c-.2,0-.48.15-.59.07s-.33,0-.46.06-.47.35-.71.51a.8.8,0,0,0-.47.6,3.32,3.32,0,0,0,.27,1.6,1.9,1.9,0,0,1,.08,1.12l-1.06-.19a1,1,0,0,0-.09-.2,1.13,1.13,0,0,1,0-1.43,1.55,1.55,0,0,0-.56-2l.26.68-.1,0c-.49.09-.65.39-.47.83a.41.41,0,0,1-.05.3,1.12,1.12,0,0,0,0,1.17c.08.18.14.38.22.56a.46.46,0,0,1-.08.58,1.54,1.54,0,0,0-.3.72,2.65,2.65,0,0,0,.44,1.87,2,2,0,0,1,.21.52c0,.07-.08.17-.13.26a.55.55,0,0,1-.19-.14,3.36,3.36,0,0,1-.16-.33c-.21-.43-.39-.88-.63-1.29a1.57,1.57,0,0,0-1.94-.82,1.06,1.06,0,0,0-.87.79,5.94,5.94,0,0,0-.14,1.45,3.93,3.93,0,0,0,1,2.39,6,6,0,0,0-.74.29,6.62,6.62,0,0,0-.62.46s-.07-.14-.12-.14c-.24,0-.23-.18-.26-.32a2.46,2.46,0,0,1-.07-.6.81.81,0,0,1,.2-.63,1.17,1.17,0,0,0,.15-.64c0-.13-.11-.26-.12-.39a1.35,1.35,0,0,0-1.72-1.31,1.41,1.41,0,0,0-.72.36,1.37,1.37,0,0,0-.27,1.16.74.74,0,0,1,0,.33.68.68,0,0,0,.31.77c.06,0,.14,0,.16.1a10.11,10.11,0,0,1,.35,1.06c0,.12,0,.26-.06.44a2.57,2.57,0,0,1-1.24-1.12c-.56-1.27-1.16-2.52-1.73-3.78-.36-.79-.76-1.56-1-2.38-.22-.66-.28-1.38-.46-2.06a2,2,0,0,0-.49-1c-.18.51.24.89.12,1.36-.3-.39-.45.16-.7.08l-.35-.51-.12.05a3.28,3.28,0,0,0,.11.45c.22.48.44,1,.67,1.44.07.13.15.25.21.38a4.55,4.55,0,0,1,.39.76c.32.84.55,1.72.93,2.53a14.43,14.43,0,0,1,1.08,2.78c0,.11,0,.23,0,.34a.65.65,0,0,0,0,.28c.23.52.48,1,.72,1.57.1.2.2.4.3.62a1.12,1.12,0,0,1-1.08-.38,1,1,0,0,1-.23-1.12.83.83,0,0,0,0-.52,1.65,1.65,0,0,0-.21-.47,1.86,1.86,0,0,0-.27-.45,1,1,0,0,0-1.39-.22c-.57.24-.68.39-.63,1a6.61,6.61,0,0,0,.18,1,.36.36,0,0,0,.18.22,1.25,1.25,0,0,1,.63,1c0,.22,0,.55-.1.67-.46.42-1,.77-1.49,1.15a.62.62,0,0,1,.1-.29,8.46,8.46,0,0,0,.54-1.28c.06-.25-.12-.56-.11-.84a4.25,4.25,0,0,0-.61-2.54,2.78,2.78,0,0,0-.56-.63c-.33-.27-.88-.28-1-.83a.19.19,0,0,0-.13-.07c-.05,0-.12.1-.11.14a2.52,2.52,0,0,0,.13.47c.13.31.39.58.13,1,0,.06,0,.19,0,.2l.94.16c0,.44,0,.87.05,1.3a.7.7,0,0,1-.65.82c-.22,0-.45,0-.67,0a.41.41,0,0,1-.49-.42,5.77,5.77,0,0,1,0-.72,5.54,5.54,0,0,0,0-1.22,1.31,1.31,0,0,0-1.47-.94c-.68,0-1.31.87-1,1.45s.62,1.15.93,1.72c.11.19.18.32,0,.56a1.48,1.48,0,0,1-1,.39.55.55,0,0,1-.58-.3c-.19-.28-.41-.55-.61-.82a.57.57,0,0,1-.07-.13l.75-.41a2.87,2.87,0,0,0-.52-.23.43.43,0,0,1-.34-.35,4.49,4.49,0,0,0-.29-.77c0-.07-.15-.1-.23-.15a1.1,1.1,0,0,0-.06.26c0,.1.06.2,0,.29-.11.37-.24.75-.36,1.1l-.71.18a3.13,3.13,0,0,0,.1-.6c0-.36,0-.72,0-1.08a1.8,1.8,0,0,1-.06-.22c.08-1-.64-1.6-1.22-2.26a.72.72,0,0,0-.32-.18,3.59,3.59,0,0,0-2-.16c-.82.21-1,.41-1.1,1.24,0,.18,0,.36,0,.53a.53.53,0,0,1-.14.31c-.23.17-.48.32-.18.64,0,0,0,.07,0,.1a1.17,1.17,0,0,0,.06.84c.22.59.33.73.94.75.41,0,.57.19.56.65-.31,0-.62-.08-.92-.15a1.15,1.15,0,0,0-1.4.54,9.88,9.88,0,0,0-.52,1.15c-.06.15-.12.29-.19.43a.63.63,0,0,1-.16-.37,4.58,4.58,0,0,1,0-1.77,2.36,2.36,0,0,0,0-.6c.09-.65.16-1.29.27-1.94a1.84,1.84,0,0,0,0-1.16,1,1,0,0,1-.07-.43c0-.68-.11-1.37-.1-2,0-1-.5-1.92-.27-2.92a2.53,2.53,0,0,1,.18-.55,4,4,0,0,1,.31-.52l-.11-.1-.25.2-.35.26-.12-.39s0-.12,0-.16a.84.84,0,0,0-.15-.18.54.54,0,0,0-.1.18,3.48,3.48,0,0,0,0,.36c-.26-.2-.23-.65-.68-.62l.07.31-.42-.38-.1.09.3.67c-.42,0-.42,0-.48.23a1.67,1.67,0,0,1,1,1.33c.07.67,0,1.35,0,2,0,.43,0,.87,0,1.3,0,.21,0,.48-.09.61a1.38,1.38,0,0,0-.34.85c0,.21-.1.41-.12.62s0,.5,0,.74l-.12,0a2.13,2.13,0,0,0-.38-.5,3.23,3.23,0,0,0-.63-.27s0,0-.07-.07a1.63,1.63,0,0,0-1.88-.44,2.15,2.15,0,0,1-.51.24,1.23,1.23,0,0,0-1.09,1.06,3.6,3.6,0,0,1-.72,1.35c-.14.18-.29.32-.55.14a.43.43,0,0,1,.1.6s0,0,0,0c6.67,3.32,20.72,7.89,39.25.64,11.49-4.5,18.31-13,22.25-20.29a1.64,1.64,0,0,0-1.28-.37l-.35,0a10.18,10.18,0,0,1,.34-1.1,2.19,2.19,0,0,0,.12-1.93,4.92,4.92,0,0,1-.34-1.29c0-.16-.2-.42-.28-.41-.28,0-.17.3-.17.48s0,.2,0,.3,0,.14,0,.21l-.15-.06a8.38,8.38,0,0,0-.18-.87c-.05-.14-.2-.37-.29-.36-.26,0-.17.25-.15.42,0,.44.08.89.11,1.28a1.58,1.58,0,0,0-.56,0c-.08,0-.1.27-.15.44-.24,0-.33.18-.31.42a7.09,7.09,0,0,0,.14.78,3.66,3.66,0,0,1,.27,1.25c-.14.89-.43,1.75-.66,2.63l-.11,0L154.3,105a.31.31,0,0,1,0-.13,42.72,42.72,0,0,0-1-5.6,1.47,1.47,0,0,1,0-.69,5.37,5.37,0,0,0-.66-3.42.05.05,0,0,0,0,0l-.23-.08c0,.06-.07.14-.06.2s.08.27.12.41c-.22-.27-.39-.57-.61-.83-.08-.1-.25-.13-.38-.19l-.09.33-.15-.22c-.11-.13-.19-.35-.4-.23-.06,0,0,.31,0,.44.15.33.33.65.49,1-.27-.26-.49-.57-.73-.85-.08-.09-.23-.11-.35-.16,0,.13-.07.29,0,.39.25.42.52.82.79,1.23a.88.88,0,0,1,.19.85c-.64-.5-1-.58-1.27-.33a12.62,12.62,0,0,0,1.46,1.28,1.68,1.68,0,0,1,.77,1.4c0,.15,0,.3.07.46.14,1.2.26,2.4.42,3.6.1.78.23,1.57.4,2.35a8.28,8.28,0,0,0,.45,1.23c-.66-.4-1.39-.7-1.59-1.53a.73.73,0,0,0-.14-.26,11.24,11.24,0,0,1-1.82-3.9,1,1,0,0,1,.19-.91c.21-.33.39-.68.6-1s.31-.41-.14-.39c0,0-.07-.1-.11-.14l-.32-.26c-.2-.17-.43-.12-.67-.12-.64,0-.92.35-.75,1,0,.07,0,.16,0,.25a7.53,7.53,0,0,0-.06,1.25,11.9,11.9,0,0,0,.28,1.29,11.09,11.09,0,0,0,.88,3c.12.22.22.45.34.69-1,.44-1.88.91-1.87,2.16a2.19,2.19,0,0,0-1.26-1.27,3.31,3.31,0,0,0-2-.12.7.7,0,0,1-.52,0c-.83-.71-1.65-1.45-2.46-2.19a.56.56,0,0,1-.19-.33,7.41,7.41,0,0,1-.25-2.34.62.62,0,0,0-.06-.12c-.64.25-.35.9-.58,1.31a1.1,1.1,0,0,1-.82-.52c-.24-.29-.46-.6-.71-.87a1.17,1.17,0,0,0-.42-.2,1.94,1.94,0,0,0,.11.43c.2.32.42.62.63.93-.31-.29-.59-.61-.89-.9-.11-.1-.37-.22-.43-.17-.21.17,0,.3.12.43l.51.64-.07.06c-.12-.11-.23-.23-.36-.33a4,4,0,0,0-.36-.17,2.71,2.71,0,0,0,.09.41.76.76,0,0,0,.17.23c-.32.12-.18.3-.06.43a5.29,5.29,0,0,0,2.41,1.81.75.75,0,0,1,.31.18c.66.72,1.3,1.45,1.94,2.16m4.93,1.88a5.05,5.05,0,0,0,.22-.69c.19,1.55,1.25,2.58,2.21,3.66l-.07.06c-.14-.1-.28-.26-.43-.28a2.46,2.46,0,0,1-1.36-1c-.06-.07-.15-.22-.12-.25.26-.35,0-.5-.23-.68A.64.64,0,0,1,148,109.87Zm-.35,3.59,1.44,1.54-.07.09c-.48-.48-1-1-1.43-1.44A1,1,0,0,1,147.69,113.46Zm-4.42,2.7-.15.39c-.49-.17-.61-.34-.62-.91Zm-4.72-.29-.16-.12.17-.2,1,.23c.22.48.51,1.08.74,1.58l-1,1.09L138.06,117a.7.7,0,0,0-.07-.88Zm-4.15,4.71.57-.5h0l1.08-.13A1.14,1.14,0,0,1,134.4,120.58Zm.36-2.75c.2.32.4.42.74.29.1,0,.19-.14.27-.13s.34.07.38.16,0,.29-.23.32-.64.12-.93.18l-.74-1.35A2,2,0,0,1,134.76,117.83Zm-2.46,2.94-.15.21.61-.12c.2.53.1.68-.51.71-.09-.25-.18-.5-.29-.78Z"/></g><g id="Cercle-2" data-name="Cercle"><path class="cls-122" d="M117.36,130.74A50.6,50.6,0,1,1,168,80.14,50.66,50.66,0,0,1,117.36,130.74Zm0-97.52a46.92,46.92,0,1,0,46.91,46.92A47,47,0,0,0,117.36,33.22Z"/></g><g id="Cercle-3" data-name="Cercle"><path class="cls-122" d="M117.36,130.74A50.6,50.6,0,1,1,168,80.14,50.66,50.66,0,0,1,117.36,130.74Zm0-97.52a46.92,46.92,0,1,0,46.91,46.92A47,47,0,0,0,117.36,33.22Z"/></g><path class="cls-122" d="M108.23,36.71A21.85,21.85,0,0,0,106.09,40c-.43.76-.23,1.38.6,1.88,1.45.85,2.85,1.8,4.22,2.78a1.61,1.61,0,0,1,.61,1.08c.1,1.07.06,2.15.08,3.44l1-1c.82,2.15,2,3.91,4.27,4.77l-2.17-4.07,1.27-.36,2.64,5,7.52-12.63c-1.94.08-3.66-.89-5.57-.1.08.08,0,0,0,0s-.11-.41-.17-.64l4.9-1.24c-2.07-.37-4-1.58-6.37-.48L119.6,37l-2.7,1.11c-1.85.77-1.85.77-3.62-.6.36-.21.67-.42,1-.59,1.41-.75,5.59-2.89,7-3.64l-1.12-.66c-1.59.85-6,3.07-7.58,3.89a1.8,1.8,0,0,1-1.43-.19C109.6,35.44,109.35,35.37,108.23,36.71Zm11,3.16c.19.57.63,1.18.53,1.7-.5,2.67-2.09,4.66-4.53,6.5-.38-.06-1.15,0-1.57-.28-.61-.47-.18-1.15.19-1.72,1.19-1.8,2.29-3.65,3.56-5.38C117.72,40.22,118.57,40.13,119.19,39.87Z"/><path class="cls-122" d="M93.25,43.48a1.79,1.79,0,0,1-1.06,1c-1.79.24-6.65.89-8.45,1.1l-.55,1.18c1.59-.18,6.24-.8,7.83-1,.37,0,.74,0,1.15-.07-.68,2.13-.68,2.13-2.64,2.54l-2.86.62,1.39.79c-2.54.43-3.48,2.54-5,4l4.74-1.76c.08.23.16.43.22.63s0,.14,0,0c-2,.43-2.88,2.21-4.53,3.25L96.89,61.9l-.64-5.56,1.25-.43L98,60.49a7.39,7.39,0,0,0,.8-6.35l1.38.24c-.72-1.08-1.36-1.94-1.89-2.87a1.67,1.67,0,0,1-.11-1.24c.58-1.59,1.19-3.16,1.9-4.69a1.24,1.24,0,0,0-.57-1.88,22.37,22.37,0,0,0-3.65-1.53C94.21,41.7,94,41.91,93.25,43.48Zm-2.63,7.16c2,.7,4,1.6,6,2.41.63.26,1.37.57,1.14,1.31-.16.51-.86.86-1.14,1.11-3-.12-5.49-.85-7.42-2.77-.37-.37-.36-1.12-.53-1.7C89.32,50.86,90.07,50.45,90.62,50.64Z"/><g class="cls-168"><path class="cls-169" d="M77.35,73.73a17.86,17.86,0,0,1,7.36-1c1.58.1,3.17.21,4.75.37,3,.28,5.26-1,7.24-3,1.56-1.62,3.09-3.28,4.68-4.88A19.68,19.68,0,0,1,105,62.32l-7.5-8.8-6.87-2.88-2,.36L73.09,66.77a41.94,41.94,0,0,0-1.92,12A10.9,10.9,0,0,1,77.35,73.73Z"/></g><g class="cls-168"><path class="cls-169" d="M113.62,47.79l13.82,18.05,26.79-13.29s-5.3-7.36-9.15-9.49-25.89-3.19-25.89-3.19l-1.82.82-3.56,5.38S112.81,47.29,113.62,47.79Z"/></g><path class="cls-122" d="M117.5,88.77a2.63,2.63,0,0,0-2.32-.38,7.64,7.64,0,0,1-3,.27,5.77,5.77,0,0,1-3-1.13,2.11,2.11,0,0,1-.53-3,7.31,7.31,0,0,1,.91-1.09c.67-.71,1.35-1.39,2-2.09a3.66,3.66,0,0,0,.38-.5l47-23.94-3.49-5.33-46,21.73c-.2-.14-.39-.27-.57-.41a3.64,3.64,0,0,1-.65-5.49,9.12,9.12,0,0,1,3.34-2.56,5.51,5.51,0,0,0,1.33-1,1.92,1.92,0,0,0,.57-1.65,2.07,2.07,0,0,0-1.94-1.74,8,8,0,0,0-4,.56,16.67,16.67,0,0,0-6.19,4.19c-1.59,1.6-3.12,3.26-4.68,4.88-2,2.06-4.28,3.32-7.24,3-1.58-.16-3.17-.27-4.75-.37a17.86,17.86,0,0,0-7.36,1,10.64,10.64,0,0,0-7.22,7.79c-.17.71-.27,1.43-.4,2.15v3c.17,1,.31,2,.52,2.95.69,3.19,1.38,7.25,3,10.05s4,4,6.38,6a12.91,12.91,0,0,0,6.9,3.31c.06,0,.11.05.17.07H89c.82-.18,1.65-.32,2.45-.55a9.75,9.75,0,0,0,6.41-5.22c.56-1.14,1.07-2.3,1.6-3.46a8.19,8.19,0,0,1,6.44-5c1-.17,2.11-.26,3.17-.34,2.2-.15,4.36.07,6.38-.88.71-.32,1.65.17,2.29-.27C119,92.45,118.71,89.65,117.5,88.77Zm38.24-34.5a.59.59,0,1,1,0,1.18.59.59,0,1,1,0-1.18Zm-27,13a.81.81,0,1,1-.8.81A.8.8,0,0,1,128.76,67.25ZM112.31,75a.74.74,0,1,1-.74.74A.74.74,0,0,1,112.31,75ZM83.1,96.23l-3.89-7.34L82,87.38l.06.08c-.45.48-.88,1-1.35,1.44a.42.42,0,0,0-.09.6Q82,92.1,83.36,94.71a.43.43,0,0,0,.56.26,14.91,14.91,0,0,1,2.14-.33Zm5.33,10.31a1,1,0,0,1-1-1,1,1,0,0,1,2,0A1,1,0,0,1,88.43,106.54ZM87.21,95.63c-.07-.1-.11-.13-.13-.17-1.82-3.17-3.63-6.35-5.45-9.51-.15-.27-.08-.42.16-.53,1.19-.62,2.39-1.23,3.59-1.84a1.78,1.78,0,0,1,.33-.09l0,.07L83,85.81l4.12,7.85a.53.53,0,0,0,.73.35c1.11-.24,2.23-.45,3.34-.67l0,.1Zm6.12,2.82a1,1,0,0,1-1-1,1,1,0,0,1,1-1,1,1,0,1,1,0,1.92Zm3.93-24.23a14.6,14.6,0,0,1-6.6,2.12,52.22,52.22,0,0,1-7.71,0,10.51,10.51,0,0,0-5.85,1.2,8,8,0,0,0-4,7.54,17.24,17.24,0,0,0,2.76,8.85c.18.3.4.59.2,1a.75.75,0,0,1-1.37,0A28,28,0,0,1,73,91.83a17.27,17.27,0,0,1-1.42-7.71,9.47,9.47,0,0,1,8.24-8.93,30.37,30.37,0,0,1,5.8,0,26.79,26.79,0,0,0,7.68-.47A12.13,12.13,0,0,0,99.61,71c1.67-1.8,3.32-3.6,5-5.34a11.08,11.08,0,0,1,4.74-3,18.2,18.2,0,0,1,2.21-.37l0,.19-.67.12a10,10,0,0,0-5.56,3.22c-1.7,1.81-3.28,3.75-5,5.57A19.08,19.08,0,0,1,97.26,74.22Zm16.58,17.63c-1.45.18-2.91.26-4.36.33a25.18,25.18,0,0,0-6,.63,5.94,5.94,0,0,0-3.56,2.62c-.07.1-.27.13-.4.2,0-.15-.08-.34,0-.45a5.52,5.52,0,0,1,2.44-2.27,12.07,12.07,0,0,1,5.33-1c2-.08,3.9-.08,5.85-.18a6,6,0,0,0,3.75-1.34A4.4,4.4,0,0,1,113.84,91.85Z"/><path class="cls-122" d="M110.78,82.21a37.22,37.22,0,0,1,5-3.43l-11.18,5.78,6.74-3C111.13,81.8,111,82,110.78,82.21Z"/><g class="cls-170"><rect class="cls-4" x="87.58" y="78.21" width="0.02" height="8.68"/><rect class="cls-4" x="87.61" y="78.21" width="0.11" height="8.68"/><rect class="cls-4" x="87.71" y="78.21" width="0.11" height="8.68"/><rect class="cls-5" x="87.82" y="78.21" width="0.11" height="8.68"/><rect class="cls-5" x="87.93" y="78.21" width="0.11" height="8.68"/><rect class="cls-5" x="88.03" y="78.21" width="0.11" height="8.68"/><rect class="cls-6" x="88.14" y="78.21" width="0.11" height="8.68"/><rect class="cls-6" x="88.25" y="78.21" width="0.11" height="8.68"/><rect class="cls-7" x="88.35" y="78.21" width="0.11" height="8.68"/><rect class="cls-8" x="88.46" y="78.21" width="0.11" height="8.68"/><rect class="cls-8" x="88.57" y="78.21" width="0.11" height="8.68"/><rect class="cls-9" x="88.67" y="78.21" width="0.11" height="8.68"/><rect class="cls-9" x="88.78" y="78.21" width="0.11" height="8.68"/><rect class="cls-10" x="88.89" y="78.21" width="0.11" height="8.68"/><rect class="cls-11" x="88.99" y="78.21" width="0.11" height="8.68"/><rect class="cls-12" x="89.1" y="78.21" width="0.11" height="8.68"/><rect class="cls-12" x="89.21" y="78.21" width="0.11" height="8.68"/><rect class="cls-13" x="89.31" y="78.21" width="0.11" height="8.68"/><rect class="cls-14" x="89.42" y="78.21" width="0.11" height="8.68"/><rect class="cls-15" x="89.53" y="78.21" width="0.11" height="8.68"/><rect class="cls-15" x="89.64" y="78.21" width="0.11" height="8.68"/><rect class="cls-16" x="89.74" y="78.21" width="0.11" height="8.68"/><rect class="cls-17" x="89.85" y="78.21" width="0.11" height="8.68"/><rect class="cls-18" x="89.96" y="78.21" width="0.11" height="8.68"/><rect class="cls-19" x="90.06" y="78.21" width="0.11" height="8.68"/><rect class="cls-20" x="90.17" y="78.21" width="0.11" height="8.68"/><rect class="cls-20" x="90.28" y="78.21" width="0.11" height="8.68"/><rect class="cls-21" x="90.38" y="78.21" width="0.11" height="8.68"/><rect class="cls-22" x="90.49" y="78.21" width="0.11" height="8.68"/><rect class="cls-23" x="90.6" y="78.21" width="0.11" height="8.68"/><rect class="cls-24" x="90.7" y="78.21" width="0.11" height="8.68"/><rect class="cls-25" x="90.81" y="78.21" width="0.11" height="8.68"/><rect class="cls-26" x="90.92" y="78.21" width="0.11" height="8.68"/><rect class="cls-27" x="91.02" y="78.21" width="0.11" height="8.68"/><rect class="cls-28" x="91.13" y="78.21" width="0.11" height="8.68"/><rect class="cls-29" x="91.24" y="78.21" width="0.11" height="8.68"/><rect class="cls-30" x="91.34" y="78.21" width="0.11" height="8.68"/><rect class="cls-31" x="91.45" y="78.21" width="0.11" height="8.68"/><rect class="cls-32" x="91.56" y="78.21" width="0.11" height="8.68"/><rect class="cls-33" x="91.66" y="78.21" width="0.11" height="8.68"/><rect class="cls-34" x="91.77" y="78.21" width="0.11" height="8.68"/><rect class="cls-35" x="91.88" y="78.21" width="0.11" height="8.68"/><rect class="cls-36" x="91.99" y="78.21" width="0.11" height="8.68"/><rect class="cls-37" x="92.09" y="78.21" width="0.11" height="8.68"/><rect class="cls-38" x="92.2" y="78.21" width="0.11" height="8.68"/><rect class="cls-39" x="92.31" y="78.21" width="0.11" height="8.68"/><rect class="cls-40" x="92.41" y="78.21" width="0.11" height="8.68"/><rect class="cls-41" x="92.52" y="78.21" width="0.11" height="8.68"/><rect class="cls-42" x="92.63" y="78.21" width="0.11" height="8.68"/><rect class="cls-43" x="92.73" y="78.21" width="0.11" height="8.68"/><rect class="cls-44" x="92.84" y="78.21" width="0.11" height="8.68"/><rect class="cls-45" x="92.95" y="78.21" width="0.11" height="8.68"/><rect class="cls-46" x="93.05" y="78.21" width="0.11" height="8.68"/><rect class="cls-47" x="93.16" y="78.21" width="0.11" height="8.68"/><rect class="cls-48" x="93.27" y="78.21" width="0.11" height="8.68"/><rect class="cls-49" x="93.37" y="78.21" width="0.11" height="8.68"/><rect class="cls-50" x="93.48" y="78.21" width="0.11" height="8.68"/><rect class="cls-51" x="93.59" y="78.21" width="0.11" height="8.68"/><rect class="cls-52" x="93.69" y="78.21" width="0.11" height="8.68"/><rect class="cls-53" x="93.8" y="78.21" width="0.11" height="8.68"/><rect class="cls-54" x="93.91" y="78.21" width="0.11" height="8.68"/><rect class="cls-55" x="94.01" y="78.21" width="0.11" height="8.68"/><rect class="cls-56" x="94.12" y="78.21" width="0.11" height="8.68"/><rect class="cls-57" x="94.23" y="78.21" width="0.11" height="8.68"/><rect class="cls-58" x="94.34" y="78.21" width="0.11" height="8.68"/><rect class="cls-59" x="94.44" y="78.21" width="0.11" height="8.68"/><rect class="cls-60" x="94.55" y="78.21" width="0.11" height="8.68"/><rect class="cls-61" x="94.66" y="78.21" width="0.11" height="8.68"/><rect class="cls-62" x="94.76" y="78.21" width="0.11" height="8.68"/><rect class="cls-63" x="94.87" y="78.21" width="0.11" height="8.68"/><rect class="cls-64" x="94.98" y="78.21" width="0.11" height="8.68"/><rect class="cls-65" x="95.08" y="78.21" width="0.11" height="8.68"/><rect class="cls-66" x="95.19" y="78.21" width="0.11" height="8.68"/><rect class="cls-67" x="95.3" y="78.21" width="0.11" height="8.68"/><rect class="cls-68" x="95.4" y="78.21" width="0.11" height="8.68"/><rect class="cls-69" x="95.51" y="78.21" width="0.11" height="8.68"/><rect class="cls-70" x="95.62" y="78.21" width="0.11" height="8.68"/><rect class="cls-71" x="95.72" y="78.21" width="0.11" height="8.68"/><rect class="cls-72" x="95.83" y="78.21" width="0.11" height="8.68"/><rect class="cls-73" x="95.94" y="78.21" width="0.11" height="8.68"/><rect class="cls-74" x="96.04" y="78.21" width="0.11" height="8.68"/><rect class="cls-75" x="96.15" y="78.21" width="0.11" height="8.68"/><rect class="cls-76" x="96.26" y="78.21" width="0.11" height="8.68"/><rect class="cls-77" x="96.36" y="78.21" width="0.11" height="8.68"/><rect class="cls-78" x="96.47" y="78.21" width="0.11" height="8.68"/><rect class="cls-79" x="96.58" y="78.21" width="0.11" height="8.68"/><rect class="cls-80" x="96.68" y="78.21" width="0.11" height="8.68"/><rect class="cls-81" x="96.79" y="78.21" width="0.11" height="8.68"/><rect class="cls-82" x="96.9" y="78.21" width="0.11" height="8.68"/><rect class="cls-83" x="97.01" y="78.21" width="0.11" height="8.68"/><rect class="cls-84" x="97.11" y="78.21" width="0.11" height="8.68"/><rect class="cls-84" x="97.22" y="78.21" width="0.2" height="8.68"/><rect class="cls-84" x="97.42" y="78.21" width="0.2" height="8.68"/><rect class="cls-85" x="97.63" y="78.21" width="0.2" height="8.68"/><rect class="cls-86" x="97.83" y="78.21" width="0.2" height="8.68"/><rect class="cls-87" x="98.04" y="78.21" width="0.2" height="8.68"/><rect class="cls-88" x="98.24" y="78.21" width="0.2" height="8.68"/><rect class="cls-89" x="98.44" y="78.21" width="0.2" height="8.68"/><rect class="cls-90" x="98.65" y="78.21" width="0.2" height="8.68"/><rect class="cls-91" x="98.85" y="78.21" width="0.2" height="8.68"/><rect class="cls-92" x="99.06" y="78.21" width="0.2" height="8.68"/><rect class="cls-93" x="99.26" y="78.21" width="0.2" height="8.68"/><rect class="cls-94" x="99.47" y="78.21" width="0.2" height="8.68"/><rect class="cls-95" x="99.67" y="78.21" width="0.2" height="8.68"/><rect class="cls-96" x="99.88" y="78.21" width="0.2" height="8.68"/><rect class="cls-97" x="100.08" y="78.21" width="0.2" height="8.68"/><rect class="cls-98" x="100.28" y="78.21" width="0.2" height="8.68"/><rect class="cls-99" x="100.49" y="78.21" width="0.2" height="8.68"/><rect class="cls-100" x="100.69" y="78.21" width="0.2" height="8.68"/><rect class="cls-101" x="100.9" y="78.21" width="0.2" height="8.68"/><rect class="cls-102" x="101.1" y="78.21" width="0.2" height="8.68"/><rect class="cls-103" x="101.31" y="78.21" width="0.2" height="8.68"/><rect class="cls-104" x="101.51" y="78.21" width="0.2" height="8.68"/><rect class="cls-105" x="101.71" y="78.21" width="0.2" height="8.68"/><rect class="cls-106" x="101.92" y="78.21" width="0.2" height="8.68"/><rect class="cls-107" x="102.12" y="78.21" width="0.2" height="8.68"/><rect class="cls-108" x="102.33" y="78.21" width="0.2" height="8.68"/><rect class="cls-109" x="102.53" y="78.21" width="0.2" height="8.68"/><rect class="cls-110" x="102.74" y="78.21" width="0.2" height="8.68"/><rect class="cls-111" x="102.94" y="78.21" width="0.2" height="8.68"/><rect class="cls-112" x="103.14" y="78.21" width="0.2" height="8.68"/><rect class="cls-113" x="103.35" y="78.21" width="0.2" height="8.68"/><rect class="cls-114" x="103.55" y="78.21" width="0.2" height="8.68"/><rect class="cls-115" x="103.76" y="78.21" width="0.2" height="8.68"/><rect class="cls-116" x="103.96" y="78.21" width="0.2" height="8.68"/><rect class="cls-117" x="104.17" y="78.21" width="0.2" height="8.68"/><rect class="cls-118" x="104.37" y="78.21" width="0.2" height="8.68"/><rect class="cls-119" x="104.57" y="78.21" width="0.2" height="8.68"/><rect class="cls-120" x="104.78" y="78.21" width="0.2" height="8.68"/><rect class="cls-121" x="104.98" y="78.21" width="0.2" height="8.68"/></g><g class="cls-171"><rect class="cls-4" x="89.42" y="80.3" width="0.02" height="8.68"/><rect class="cls-4" x="89.44" y="80.3" width="0.11" height="8.68"/><rect class="cls-4" x="89.55" y="80.3" width="0.11" height="8.68"/><rect class="cls-5" x="89.65" y="80.3" width="0.11" height="8.68"/><rect class="cls-5" x="89.76" y="80.3" width="0.11" height="8.68"/><rect class="cls-5" x="89.87" y="80.3" width="0.11" height="8.68"/><rect class="cls-6" x="89.98" y="80.3" width="0.11" height="8.68"/><rect class="cls-6" x="90.08" y="80.3" width="0.11" height="8.68"/><rect class="cls-7" x="90.19" y="80.3" width="0.11" height="8.68"/><rect class="cls-8" x="90.3" y="80.3" width="0.11" height="8.68"/><rect class="cls-8" x="90.4" y="80.3" width="0.11" height="8.68"/><rect class="cls-9" x="90.51" y="80.3" width="0.11" height="8.68"/><rect class="cls-9" x="90.62" y="80.3" width="0.11" height="8.68"/><rect class="cls-10" x="90.72" y="80.3" width="0.11" height="8.68"/><rect class="cls-11" x="90.83" y="80.3" width="0.11" height="8.68"/><rect class="cls-12" x="90.94" y="80.3" width="0.11" height="8.68"/><rect class="cls-12" x="91.04" y="80.3" width="0.11" height="8.68"/><rect class="cls-13" x="91.15" y="80.3" width="0.11" height="8.68"/><rect class="cls-14" x="91.26" y="80.3" width="0.11" height="8.68"/><rect class="cls-15" x="91.36" y="80.3" width="0.11" height="8.68"/><rect class="cls-15" x="91.47" y="80.3" width="0.11" height="8.68"/><rect class="cls-16" x="91.58" y="80.3" width="0.11" height="8.68"/><rect class="cls-17" x="91.68" y="80.3" width="0.11" height="8.68"/><rect class="cls-18" x="91.79" y="80.3" width="0.11" height="8.68"/><rect class="cls-19" x="91.9" y="80.3" width="0.11" height="8.68"/><rect class="cls-20" x="92" y="80.3" width="0.11" height="8.68"/><rect class="cls-20" x="92.11" y="80.3" width="0.11" height="8.68"/><rect class="cls-21" x="92.22" y="80.3" width="0.11" height="8.68"/><rect class="cls-22" x="92.33" y="80.3" width="0.11" height="8.68"/><rect class="cls-23" x="92.43" y="80.3" width="0.11" height="8.68"/><rect class="cls-24" x="92.54" y="80.3" width="0.11" height="8.68"/><rect class="cls-25" x="92.65" y="80.3" width="0.11" height="8.68"/><rect class="cls-26" x="92.75" y="80.3" width="0.11" height="8.68"/><rect class="cls-27" x="92.86" y="80.3" width="0.11" height="8.68"/><rect class="cls-28" x="92.97" y="80.3" width="0.11" height="8.68"/><rect class="cls-29" x="93.07" y="80.3" width="0.11" height="8.68"/><rect class="cls-30" x="93.18" y="80.3" width="0.11" height="8.68"/><rect class="cls-31" x="93.29" y="80.3" width="0.11" height="8.68"/><rect class="cls-32" x="93.39" y="80.3" width="0.11" height="8.68"/><rect class="cls-33" x="93.5" y="80.3" width="0.11" height="8.68"/><rect class="cls-34" x="93.61" y="80.3" width="0.11" height="8.68"/><rect class="cls-35" x="93.71" y="80.3" width="0.11" height="8.68"/><rect class="cls-36" x="93.82" y="80.3" width="0.11" height="8.68"/><rect class="cls-37" x="93.93" y="80.3" width="0.11" height="8.68"/><rect class="cls-38" x="94.03" y="80.3" width="0.11" height="8.68"/><rect class="cls-39" x="94.14" y="80.3" width="0.11" height="8.68"/><rect class="cls-40" x="94.25" y="80.3" width="0.11" height="8.68"/><rect class="cls-41" x="94.35" y="80.3" width="0.11" height="8.68"/><rect class="cls-42" x="94.46" y="80.3" width="0.11" height="8.68"/><rect class="cls-43" x="94.57" y="80.3" width="0.11" height="8.68"/><rect class="cls-44" x="94.68" y="80.3" width="0.11" height="8.68"/><rect class="cls-45" x="94.78" y="80.3" width="0.11" height="8.68"/><rect class="cls-46" x="94.89" y="80.3" width="0.11" height="8.68"/><rect class="cls-47" x="95" y="80.3" width="0.11" height="8.68"/><rect class="cls-48" x="95.1" y="80.3" width="0.11" height="8.68"/><rect class="cls-49" x="95.21" y="80.3" width="0.11" height="8.68"/><rect class="cls-50" x="95.32" y="80.3" width="0.11" height="8.68"/><rect class="cls-51" x="95.42" y="80.3" width="0.11" height="8.68"/><rect class="cls-52" x="95.53" y="80.3" width="0.11" height="8.68"/><rect class="cls-53" x="95.64" y="80.3" width="0.11" height="8.68"/><rect class="cls-54" x="95.74" y="80.3" width="0.11" height="8.68"/><rect class="cls-55" x="95.85" y="80.3" width="0.11" height="8.68"/><rect class="cls-56" x="95.96" y="80.3" width="0.11" height="8.68"/><rect class="cls-57" x="96.06" y="80.3" width="0.11" height="8.68"/><rect class="cls-58" x="96.17" y="80.3" width="0.11" height="8.68"/><rect class="cls-59" x="96.28" y="80.3" width="0.11" height="8.68"/><rect class="cls-60" x="96.38" y="80.3" width="0.11" height="8.68"/><rect class="cls-61" x="96.49" y="80.3" width="0.11" height="8.68"/><rect class="cls-62" x="96.6" y="80.3" width="0.11" height="8.68"/><rect class="cls-63" x="96.7" y="80.3" width="0.11" height="8.68"/><rect class="cls-64" x="96.81" y="80.3" width="0.11" height="8.68"/><rect class="cls-65" x="96.92" y="80.3" width="0.11" height="8.68"/><rect class="cls-66" x="97.03" y="80.3" width="0.11" height="8.68"/><rect class="cls-67" x="97.13" y="80.3" width="0.11" height="8.68"/><rect class="cls-68" x="97.24" y="80.3" width="0.11" height="8.68"/><rect class="cls-69" x="97.35" y="80.3" width="0.11" height="8.68"/><rect class="cls-70" x="97.45" y="80.3" width="0.11" height="8.68"/><rect class="cls-71" x="97.56" y="80.3" width="0.11" height="8.68"/><rect class="cls-72" x="97.67" y="80.3" width="0.11" height="8.68"/><rect class="cls-73" x="97.77" y="80.3" width="0.11" height="8.68"/><rect class="cls-74" x="97.88" y="80.3" width="0.11" height="8.68"/><rect class="cls-75" x="97.99" y="80.3" width="0.11" height="8.68"/><rect class="cls-76" x="98.09" y="80.3" width="0.11" height="8.68"/><rect class="cls-77" x="98.2" y="80.3" width="0.11" height="8.68"/><rect class="cls-78" x="98.31" y="80.3" width="0.11" height="8.68"/><rect class="cls-79" x="98.41" y="80.3" width="0.11" height="8.68"/><rect class="cls-80" x="98.52" y="80.3" width="0.11" height="8.68"/><rect class="cls-81" x="98.63" y="80.3" width="0.11" height="8.68"/><rect class="cls-82" x="98.73" y="80.3" width="0.11" height="8.68"/><rect class="cls-83" x="98.84" y="80.3" width="0.11" height="8.68"/><rect class="cls-84" x="98.95" y="80.3" width="0.11" height="8.68"/><rect class="cls-84" x="99.05" y="80.3" width="0.2" height="8.68"/><rect class="cls-84" x="99.26" y="80.3" width="0.2" height="8.68"/><rect class="cls-85" x="99.46" y="80.3" width="0.2" height="8.68"/><rect class="cls-86" x="99.67" y="80.3" width="0.2" height="8.68"/><rect class="cls-87" x="99.87" y="80.3" width="0.2" height="8.68"/><rect class="cls-88" x="100.08" y="80.3" width="0.2" height="8.68"/><rect class="cls-89" x="100.28" y="80.3" width="0.2" height="8.68"/><rect class="cls-90" x="100.48" y="80.3" width="0.2" height="8.68"/><rect class="cls-91" x="100.69" y="80.3" width="0.2" height="8.68"/><rect class="cls-92" x="100.89" y="80.3" width="0.2" height="8.68"/><rect class="cls-93" x="101.1" y="80.3" width="0.2" height="8.68"/><rect class="cls-94" x="101.3" y="80.3" width="0.2" height="8.68"/><rect class="cls-95" x="101.51" y="80.3" width="0.2" height="8.68"/><rect class="cls-96" x="101.71" y="80.3" width="0.2" height="8.68"/><rect class="cls-97" x="101.91" y="80.3" width="0.2" height="8.68"/><rect class="cls-98" x="102.12" y="80.3" width="0.2" height="8.68"/><rect class="cls-99" x="102.32" y="80.3" width="0.2" height="8.68"/><rect class="cls-100" x="102.53" y="80.3" width="0.2" height="8.68"/><rect class="cls-101" x="102.73" y="80.3" width="0.2" height="8.68"/><rect class="cls-102" x="102.94" y="80.3" width="0.2" height="8.68"/><rect class="cls-103" x="103.14" y="80.3" width="0.2" height="8.68"/><rect class="cls-104" x="103.35" y="80.3" width="0.2" height="8.68"/><rect class="cls-105" x="103.55" y="80.3" width="0.2" height="8.68"/><rect class="cls-106" x="103.75" y="80.3" width="0.2" height="8.68"/><rect class="cls-107" x="103.96" y="80.3" width="0.2" height="8.68"/><rect class="cls-108" x="104.16" y="80.3" width="0.2" height="8.68"/><rect class="cls-109" x="104.37" y="80.3" width="0.2" height="8.68"/><rect class="cls-110" x="104.57" y="80.3" width="0.2" height="8.68"/><rect class="cls-111" x="104.78" y="80.3" width="0.2" height="8.68"/><rect class="cls-112" x="104.98" y="80.3" width="0.2" height="8.68"/><rect class="cls-113" x="105.18" y="80.3" width="0.2" height="8.68"/><rect class="cls-114" x="105.39" y="80.3" width="0.2" height="8.68"/><rect class="cls-115" x="105.59" y="80.3" width="0.2" height="8.68"/><rect class="cls-116" x="105.8" y="80.3" width="0.2" height="8.68"/><rect class="cls-117" x="106" y="80.3" width="0.2" height="8.68"/><rect class="cls-118" x="106.21" y="80.3" width="0.2" height="8.68"/><rect class="cls-119" x="106.41" y="80.3" width="0.2" height="8.68"/><rect class="cls-120" x="106.61" y="80.3" width="0.2" height="8.68"/><rect class="cls-121" x="106.82" y="80.3" width="0.2" height="8.68"/></g><g class="cls-172"><rect class="cls-4" x="77.8" y="62.91" width="0.08" height="47.65"/><rect class="cls-5" x="77.88" y="62.91" width="0.44" height="47.65"/><rect class="cls-5" x="78.32" y="62.91" width="0.44" height="47.65"/><rect class="cls-5" x="78.76" y="62.91" width="0.44" height="47.65"/><rect class="cls-6" x="79.2" y="62.91" width="0.44" height="47.65"/><rect class="cls-6" x="79.64" y="62.91" width="0.44" height="47.65"/><rect class="cls-7" x="80.08" y="62.91" width="0.44" height="47.65"/><rect class="cls-8" x="80.52" y="62.91" width="0.44" height="47.65"/><rect class="cls-8" x="80.96" y="62.91" width="0.44" height="47.65"/><rect class="cls-9" x="81.4" y="62.91" width="0.44" height="47.65"/><rect class="cls-9" x="81.84" y="62.91" width="0.44" height="47.65"/><rect class="cls-10" x="82.28" y="62.91" width="0.44" height="47.65"/><rect class="cls-11" x="82.72" y="62.91" width="0.44" height="47.65"/><rect class="cls-12" x="83.16" y="62.91" width="0.44" height="47.65"/><rect class="cls-12" x="83.6" y="62.91" width="0.44" height="47.65"/><rect class="cls-13" x="84.04" y="62.91" width="0.44" height="47.65"/><rect class="cls-14" x="84.48" y="62.91" width="0.44" height="47.65"/><rect class="cls-15" x="84.92" y="62.91" width="0.44" height="47.65"/><rect class="cls-15" x="85.36" y="62.91" width="0.44" height="47.65"/><rect class="cls-16" x="85.8" y="62.91" width="0.44" height="47.65"/><rect class="cls-17" x="86.24" y="62.91" width="0.44" height="47.65"/><rect class="cls-18" x="86.68" y="62.91" width="0.44" height="47.65"/><rect class="cls-19" x="87.12" y="62.91" width="0.44" height="47.65"/><rect class="cls-20" x="87.56" y="62.91" width="0.44" height="47.65"/><rect class="cls-20" x="88" y="62.91" width="0.44" height="47.65"/><rect class="cls-21" x="88.44" y="62.91" width="0.44" height="47.65"/><rect class="cls-22" x="88.88" y="62.91" width="0.44" height="47.65"/><rect class="cls-23" x="89.33" y="62.91" width="0.44" height="47.65"/><rect class="cls-24" x="89.77" y="62.91" width="0.44" height="47.65"/><rect class="cls-25" x="90.21" y="62.91" width="0.44" height="47.65"/><rect class="cls-26" x="90.65" y="62.91" width="0.44" height="47.65"/><rect class="cls-27" x="91.09" y="62.91" width="0.44" height="47.65"/><rect class="cls-28" x="91.53" y="62.91" width="0.44" height="47.65"/><rect class="cls-29" x="91.97" y="62.91" width="0.44" height="47.65"/><rect class="cls-30" x="92.41" y="62.91" width="0.44" height="47.65"/><rect class="cls-31" x="92.85" y="62.91" width="0.44" height="47.65"/><rect class="cls-32" x="93.29" y="62.91" width="0.44" height="47.65"/><rect class="cls-33" x="93.73" y="62.91" width="0.44" height="47.65"/><rect class="cls-34" x="94.17" y="62.91" width="0.44" height="47.65"/><rect class="cls-35" x="94.61" y="62.91" width="0.44" height="47.65"/><rect class="cls-36" x="95.05" y="62.91" width="0.44" height="47.65"/><rect class="cls-37" x="95.49" y="62.91" width="0.44" height="47.65"/><rect class="cls-38" x="95.93" y="62.91" width="0.44" height="47.65"/><rect class="cls-39" x="96.37" y="62.91" width="0.44" height="47.65"/><rect class="cls-40" x="96.81" y="62.91" width="0.44" height="47.65"/><rect class="cls-41" x="97.25" y="62.91" width="0.44" height="47.65"/><rect class="cls-42" x="97.69" y="62.91" width="0.44" height="47.65"/><rect class="cls-43" x="98.13" y="62.91" width="0.44" height="47.65"/><rect class="cls-44" x="98.57" y="62.91" width="0.44" height="47.65"/><rect class="cls-45" x="99.01" y="62.91" width="0.44" height="47.65"/><rect class="cls-46" x="99.45" y="62.91" width="0.44" height="47.65"/><rect class="cls-47" x="99.89" y="62.91" width="0.44" height="47.65"/><rect class="cls-48" x="100.33" y="62.91" width="0.44" height="47.65"/><rect class="cls-49" x="100.77" y="62.91" width="0.44" height="47.65"/><rect class="cls-50" x="101.21" y="62.91" width="0.44" height="47.65"/><rect class="cls-51" x="101.65" y="62.91" width="0.44" height="47.65"/><rect class="cls-52" x="102.09" y="62.91" width="0.44" height="47.65"/><rect class="cls-53" x="102.53" y="62.91" width="0.44" height="47.65"/><rect class="cls-54" x="102.97" y="62.91" width="0.44" height="47.65"/><rect class="cls-55" x="103.41" y="62.91" width="0.44" height="47.65"/><rect class="cls-56" x="103.85" y="62.91" width="0.44" height="47.65"/><rect class="cls-57" x="104.29" y="62.91" width="0.44" height="47.65"/><rect class="cls-58" x="104.73" y="62.91" width="0.44" height="47.65"/><rect class="cls-59" x="105.17" y="62.91" width="0.44" height="47.65"/><rect class="cls-60" x="105.61" y="62.91" width="0.44" height="47.65"/><rect class="cls-61" x="106.05" y="62.91" width="0.44" height="47.65"/><rect class="cls-62" x="106.49" y="62.91" width="0.44" height="47.65"/><rect class="cls-63" x="106.93" y="62.91" width="0.44" height="47.65"/><rect class="cls-64" x="107.37" y="62.91" width="0.44" height="47.65"/><rect class="cls-65" x="107.81" y="62.91" width="0.44" height="47.65"/><rect class="cls-66" x="108.25" y="62.91" width="0.44" height="47.65"/><rect class="cls-67" x="108.69" y="62.91" width="0.44" height="47.65"/><rect class="cls-68" x="109.13" y="62.91" width="0.44" height="47.65"/><rect class="cls-69" x="109.57" y="62.91" width="0.44" height="47.65"/><rect class="cls-70" x="110.01" y="62.91" width="0.44" height="47.65"/><rect class="cls-71" x="110.45" y="62.91" width="0.44" height="47.65"/><rect class="cls-72" x="110.89" y="62.91" width="0.44" height="47.65"/><rect class="cls-73" x="111.33" y="62.91" width="0.44" height="47.65"/><rect class="cls-74" x="111.77" y="62.91" width="0.44" height="47.65"/><rect class="cls-75" x="112.21" y="62.91" width="0.44" height="47.65"/><rect class="cls-76" x="112.65" y="62.91" width="0.44" height="47.65"/><rect class="cls-77" x="113.09" y="62.91" width="0.44" height="47.65"/><rect class="cls-78" x="113.53" y="62.91" width="0.44" height="47.65"/><rect class="cls-79" x="113.97" y="62.91" width="0.44" height="47.65"/><rect class="cls-80" x="114.41" y="62.91" width="0.44" height="47.65"/><rect class="cls-81" x="114.85" y="62.91" width="0.44" height="47.65"/><rect class="cls-82" x="115.29" y="62.91" width="0.44" height="47.65"/><rect class="cls-83" x="115.73" y="62.91" width="0.44" height="47.65"/><rect class="cls-84" x="116.17" y="62.91" width="0.44" height="47.65"/><rect class="cls-84" x="116.61" y="62.91" width="0.84" height="47.65"/><rect class="cls-84" x="117.45" y="62.91" width="0.84" height="47.65"/><rect class="cls-85" x="118.3" y="62.91" width="0.84" height="47.65"/><rect class="cls-86" x="119.14" y="62.91" width="0.84" height="47.65"/><rect class="cls-87" x="119.98" y="62.91" width="0.84" height="47.65"/><rect class="cls-88" x="120.82" y="62.91" width="0.84" height="47.65"/><rect class="cls-89" x="121.66" y="62.91" width="0.84" height="47.65"/><rect class="cls-90" x="122.51" y="62.91" width="0.84" height="47.65"/><rect class="cls-91" x="123.35" y="62.91" width="0.84" height="47.65"/><rect class="cls-92" x="124.19" y="62.91" width="0.84" height="47.65"/><rect class="cls-93" x="125.03" y="62.91" width="0.84" height="47.65"/><rect class="cls-94" x="125.87" y="62.91" width="0.84" height="47.65"/><rect class="cls-95" x="126.71" y="62.91" width="0.84" height="47.65"/><rect class="cls-96" x="127.56" y="62.91" width="0.84" height="47.65"/><rect class="cls-97" x="128.4" y="62.91" width="0.84" height="47.65"/><rect class="cls-98" x="129.24" y="62.91" width="0.84" height="47.65"/><rect class="cls-99" x="130.08" y="62.91" width="0.84" height="47.65"/><rect class="cls-100" x="130.92" y="62.91" width="0.84" height="47.65"/><rect class="cls-101" x="131.77" y="62.91" width="0.84" height="47.65"/><rect class="cls-102" x="132.61" y="62.91" width="0.84" height="47.65"/><rect class="cls-103" x="133.45" y="62.91" width="0.84" height="47.65"/><rect class="cls-104" x="134.29" y="62.91" width="0.84" height="47.65"/><rect class="cls-105" x="135.13" y="62.91" width="0.84" height="47.65"/><rect class="cls-106" x="135.97" y="62.91" width="0.84" height="47.65"/><rect class="cls-107" x="136.82" y="62.91" width="0.84" height="47.65"/><rect class="cls-108" x="137.66" y="62.91" width="0.84" height="47.65"/><rect class="cls-109" x="138.5" y="62.91" width="0.84" height="47.65"/><rect class="cls-110" x="139.34" y="62.91" width="0.84" height="47.65"/><rect class="cls-111" x="140.18" y="62.91" width="0.84" height="47.65"/><rect class="cls-112" x="141.03" y="62.91" width="0.84" height="47.65"/><rect class="cls-113" x="141.87" y="62.91" width="0.84" height="47.65"/><rect class="cls-114" x="142.71" y="62.91" width="0.84" height="47.65"/><rect class="cls-115" x="143.55" y="62.91" width="0.84" height="47.65"/><rect class="cls-116" x="144.39" y="62.91" width="0.84" height="47.65"/><rect class="cls-117" x="145.23" y="62.91" width="0.84" height="47.65"/><rect class="cls-118" x="146.08" y="62.91" width="0.84" height="47.65"/><rect class="cls-119" x="146.92" y="62.91" width="0.84" height="47.65"/><rect class="cls-120" x="147.76" y="62.91" width="0.84" height="47.65"/><rect class="cls-121" x="148.6" y="62.91" width="0.44" height="47.65"/></g></svg>